<svg xmlns="http://www.w3.org/2000/svg" width="13.109" height="12.332" viewBox="54.445 58.538 13.109 12.332"><path d="M61.012 58.538c-3.619 0-6.567 2.529-6.567 5.68 0 1.548.729 2.939 1.897 3.969-.177.53-.571.95-.97 1.272-.214.173-.419.32-.582.464a1.155 1.155 0 0 0-.213.232.437.437 0 0 0-.074.352l.033.104.09.056c.339.19.76.223 1.215.192.454-.03.95-.133 1.436-.264.944-.254 1.83-.616 2.299-.816.462.094.925.152 1.412.152 3.619 0 6.567-2.53 6.567-5.68 0-3.151-2.923-5.713-6.543-5.713Zm0 .512c3.368 0 6.017 2.359 6.017 5.2 0 2.84-2.673 5.169-6.041 5.169-.48 0-.933-.046-1.388-.144l-.09-.024-.074.04c-.439.189-1.368.558-2.298.808-.466.125-.93.221-1.33.248-.268.018-.433-.044-.616-.088.13-.109.31-.239.517-.408.458-.37 1.007-.885 1.199-1.648l.041-.16-.131-.096c-1.158-.956-1.847-2.273-1.847-3.729 0-2.84 2.673-5.168 6.041-5.168Zm-.312 2.512c-.079 0-.106.045-.106.096v.672c0 .077.054.096.106.096h.624c.08 0 .107-.045.107-.096v-.672c0-.077-.054-.096-.107-.096H60.7Zm.025 1.864c-.079 0-.107.053-.107.104v3.433c0 .077.055.104.107.104v.024h.6c.078 0 .106-.053.106-.104V63.53c0-.077-.054-.104-.107-.104h-.599Z" fill="#fff" fill-rule="evenodd" data-name="ic_about"/></svg>