<svg xmlns="http://www.w3.org/2000/svg" width="20.929" height="21.648" viewBox="85.462 536.352 20.929 21.648"><g data-name="add-to-basket-icon"><path d="M95.54 550.432h-7.393l.493 2.875h6.388a6.294 6.294 0 0 1 .512-2.875Z" fill="#fff" fill-rule="evenodd" data-name="Path 75"/><path d="M95.23 554.575h-6.372l.14.816c.28 1.658 1.203 2.609 2.533 2.609h6.014a6.338 6.338 0 0 1-2.315-3.425Z" fill="#fff" fill-rule="evenodd" data-name="Path 76"/><path d="M105.546 548.234c.168-.387.126-.54.126-2.182 0-.849-.69-1.54-1.54-1.54h-1.407l-3.884-7.808a.634.634 0 1 0-1.136.565l3.603 7.243H89.826l3.603-7.243a.634.634 0 0 0-1.136-.565l-3.884 7.808h-1.407c-.849 0-1.54.691-1.54 1.54v1.571c0 .85.691 1.54 1.54 1.54h9.276c2.228-2.97 6.503-3.4 9.268-.929Z" fill="#fff" fill-rule="evenodd" data-name="Path 77"/><path d="M104.079 548.704c-3.395-2.172-7.793.278-7.793 4.243a5.058 5.058 0 0 0 5.052 5.053 5.058 5.058 0 0 0 5.053-5.053 5.053 5.053 0 0 0-2.312-4.243Zm-1.07 4.857h-1.057v1.057a.634.634 0 0 1-1.269 0v-1.057h-1.057a.634.634 0 0 1 0-1.269h1.057v-1.057a.635.635 0 0 1 1.269 0v1.057h1.057a.634.634 0 0 1 0 1.269Z" fill="#fff" fill-rule="evenodd" data-name="Path 78"/></g></svg>