<svg xmlns="http://www.w3.org/2000/svg" width="29.592" height="25.996" viewBox="102.204 245.002 29.592 25.996"><g data-name="ic_food"><path d="M110.908 262.41h12.185v1.74h-12.185v-1.74Z" fill="#fff" fill-rule="evenodd" data-name="Path 191"/><path d="M128.315 260.669v-2.12c0-3.173-.9-5.367-2.753-6.71-1.395-1.011-3.253-1.515-5.95-1.601v-1.754h-1.742v-1.74h3.482v-1.742h-8.704v1.741h3.482v1.74h-1.741v1.756c-2.65.09-4.548.604-5.927 1.599-1.868 1.347-2.777 3.543-2.777 6.71v2.12h22.63Z" fill="#fff" fill-rule="evenodd" data-name="Path 192"/><path d="m130.064 269.257-1.122-3.366h-23.884l-1.122 3.366h-1.732v1.741h29.592v-1.74h-1.732Z" fill="#fff" fill-rule="evenodd" data-name="Path 193"/></g></svg>