<svg xmlns="http://www.w3.org/2000/svg" width="34" height="34" viewBox="141 762 34 34"><g data-name="Group 69"><path d="M149 762h18a8 8 0 0 1 8 8v18a8 8 0 0 1-8 8h-18a8 8 0 0 1-8-8v-18a8 8 0 0 1 8-8z" fill="#f2bc41" fill-rule="evenodd" data-name="Rectangle 227"/><path d="M155.555 776.832A1 1 0 0 0 156 776v-4a3 3 0 0 0-3-3h-4a1 1 0 0 0-1 1c0 9.941 9.059 19 19 19a1 1 0 0 0 1-1v-4a3 3 0 0 0-3-3h-4a1 1 0 0 0-.832.445l-1.905 2.858a18.888 18.888 0 0 1-5.292-5.154l-.274-.412 2.858-1.905Zm5.98 6.168H165a1 1 0 0 1 1 1v2.965c-1.937-.134-3.828-.652-5.591-1.473l-.405-.195 1.531-2.297Zm-11.5-12H153a1 1 0 0 1 1 1v3.465l-2.297 1.53c-.934-1.877-1.524-3.909-1.668-5.995Z" fill="#fff" fill-rule="evenodd" data-name="ic_phone"/></g></svg>