<svg xmlns="http://www.w3.org/2000/svg" width="37.083" height="37.083" viewBox="-0.017 -0.017 37.083 37.083"><g data-name="insurance"><path d="M16.936 37.047A2.649 2.649 0 0 1 14.29 34.4a2.649 2.649 0 0 1 2.646-2.647 2.649 2.649 0 0 1 2.646 2.647 2.649 2.649 0 0 1-2.646 2.646Z" fill="#8e8e8e" fill-rule="evenodd" data-name="Path 1"/><path d="M28.05 37.047a2.649 2.649 0 0 1-2.646-2.646 2.649 2.649 0 0 1 2.646-2.647 2.649 2.649 0 0 1 2.646 2.647 2.649 2.649 0 0 1-2.646 2.646Z" fill="#8e8e8e" fill-rule="evenodd" data-name="Path 2"/><path d="m31.761 22.07-.062.225c-.17.582-.792.992-1.507.992H14.848c-.715 0-1.336-.41-1.507-1.005l-2.423-8.257h5.188a9.249 9.249 0 0 1-.56-2.646h-5.404l-.28-.966C9.334 8.64 7.486 7.41 5.342 7.41H1.554C.7 7.41 0 8.005 0 8.733s.699 1.323 1.553 1.323h3.79c.714 0 1.335.41 1.506 1.006l3.48 11.868c.527 1.773 2.375 3.003 4.519 3.003h15.344c2.144 0 3.992-1.23 4.52-2.99l1.025-3.44a20.392 20.392 0 0 1-3.976 2.567Z" fill="#8e8e8e" fill-rule="evenodd" data-name="Path 3"/><path d="M36.373 2.417 29.427.054a.976.976 0 0 0-.638 0l-6.946 2.363a.99.99 0 0 0-.673.94v5.315c0 6.489 7.242 9.643 7.55 9.774a.998.998 0 0 0 .776 0c.308-.13 7.55-3.285 7.55-9.774V3.356a.99.99 0 0 0-.673-.94Zm-2.917 5.017-3.639 4.63a1.322 1.322 0 0 1-1.9.189l-2.315-1.985a1.322 1.322 0 1 1 1.721-2.008l1.268 1.086L31.376 5.8a1.32 1.32 0 0 1 1.858-.222c.574.448.674 1.28.222 1.855Z" fill="#8e8e8e" fill-rule="evenodd" data-name="Path 4"/></g></svg>