<svg xmlns="http://www.w3.org/2000/svg" width="37.067" height="37.083" viewBox="12 -0.017 37.067 37.083"><g data-name="line icons"><path d="M25.734 27.474a13.736 13.736 0 1 1 9.72-4.02 13.703 13.703 0 0 1-9.72 4.02Zm0-26.423a12.679 12.679 0 1 0 .02 25.357 12.679 12.679 0 0 0-.02-25.357Z" fill="#54bad5" fill-rule="evenodd" data-name="Path 56"/><path d="M44.87 37.04c-.054 0-.11 0-.165-.003a4.198 4.198 0 0 1-3.018-1.465L34.7 27.345a.53.53 0 0 1 .11-.783.842.842 0 0 0 .114-.097l3.541-3.541a.76.76 0 0 0 .093-.106.53.53 0 0 1 .787-.116l8.226 6.987a4.182 4.182 0 0 1 .246 6.134 4.177 4.177 0 0 1-2.948 1.217Zm-9.032-9.991 6.655 7.837a3.123 3.123 0 0 0 4.576.187 3.123 3.123 0 0 0-.184-4.58l-7.834-6.656-3.213 3.212Z" fill="#54bad5" fill-rule="evenodd" data-name="Path 57"/><path d="M34.257 27.804a2.005 2.005 0 0 1-1.42-.591l-1.226-1.225a.53.53 0 1 1 .748-.749l1.224 1.225a.943.943 0 0 0 1.337 0l3.543-3.542a.943.943 0 0 0 0-1.336l-1.225-1.225a.53.53 0 1 1 .748-.749l1.226 1.226a1.998 1.998 0 0 1 0 2.836l-3.543 3.543a1.98 1.98 0 0 1-1.414.59Z" fill="#54bad5" fill-rule="evenodd" data-name="Path 58"/><path d="M23.498 17.698a.526.526 0 0 1-.374-.155l-2.19-2.189a.53.53 0 1 1 .75-.748l1.814 1.814 6.29-6.29a.53.53 0 1 1 .749.749l-6.664 6.664a.53.53 0 0 1-.375.155Z" fill="#54bad5" fill-rule="evenodd" data-name="Path 59"/><path d="M25.733 24.202a10.468 10.468 0 1 1 .013-20.937 10.468 10.468 0 0 1-.013 20.937Zm0-19.878a9.41 9.41 0 1 0 .013 18.82 9.41 9.41 0 0 0-.013-18.82Z" fill="#54bad5" fill-rule="evenodd" data-name="Path 60"/></g></svg>