<svg xmlns="http://www.w3.org/2000/svg" width="29.707" height="29.707" viewBox="252.147 244.147 29.707 29.707"><g data-name="cleaning-products-icon"><path d="M281.854 254.992a5.818 5.818 0 0 0-4.66-5.687L271 248.06h-10.217v2.327h5.384v5.929l-1.888 1.71v2.146c3.439 1.36 5.877 4.717 5.877 8.634v5.046h11.698v-18.86Zm-3.37 6.586a1.66 1.66 0 0 1-1.658 1.658h-3.115V252.19l2.698.459a2.487 2.487 0 0 1 2.075 2.458v6.47Z" fill="#8e8e8e" fill-rule="evenodd" data-name="Path 215"/><path d="M253.704 259.521h-1.557v1.735h1.557a3.533 3.533 0 0 0 3.304-2.295l-1.587-.72c-.221.74-.907 1.28-1.717 1.28Z" fill="#8e8e8e" fill-rule="evenodd" data-name="Path 216"/><path d="M262.33 244.147h5.466v2.179h-5.466v-2.18Z" fill="#8e8e8e" fill-rule="evenodd" data-name="Path 217"/><path d="m254.368 255.805 4.664 2.278v1.627a9.288 9.288 0 0 1 3.565-.023v-2.412l1.887-1.677v-3.527h-10.116v1.045h-2.221v1.735h2.221v.954Z" fill="#8e8e8e" fill-rule="evenodd" data-name="Path 218"/><path d="M260.201 265.247v-4.008a7.61 7.61 0 0 0-6.036 4.008h6.036Z" fill="#8e8e8e" fill-rule="evenodd" data-name="Path 219"/><path d="M268.251 266.982h-6.315v3.371h-1.735v-3.37H253.5a7.589 7.589 0 0 0-.222 1.824v5.046h15.195v-5.046c0-.63-.077-1.24-.222-1.825Z" fill="#8e8e8e" fill-rule="evenodd" data-name="Path 220"/><path d="M261.936 265.248h5.65a7.616 7.616 0 0 0-5.65-3.965v3.965Z" fill="#8e8e8e" fill-rule="evenodd" data-name="Path 221"/></g></svg>