<svg xmlns="http://www.w3.org/2000/svg" width="22" height="18.62" viewBox="29 442 22 18.62"><g data-name="credit-card-icon"><path d="M50.997 443.375v10.477a1.37 1.37 0 0 1-1.375 1.375H32.93a1.37 1.37 0 0 1-1.375-1.375v-10.477c0-.756.612-1.375 1.375-1.375h16.692c.763 0 1.375.619 1.375 1.375Z" fill="#6f7070" fill-rule="evenodd" data-name="Path 98"/><path d="M31.551 444.501H51v2.233H31.551v-2.233z" fill="#464646" fill-rule="evenodd" data-name="Rectangle 18"/><g data-name="Group 44"><path d="M45.928 442.563H41.49a.687.687 0 1 0 0 1.375h4.437a.687.687 0 1 0 0-1.375Z" fill="#787878" fill-rule="evenodd" data-name="Path 99"/><path d="M49.133 442.563h-1.202a.687.687 0 1 0 0 1.375h1.202a.687.687 0 1 0 0-1.375Z" fill="#787878" fill-rule="evenodd" data-name="Path 100"/></g><g data-name="Group 45"><path d="M36.725 444.93h-3.352a.687.687 0 1 0 0 1.375h3.352a.687.687 0 1 0 0-1.375Z" fill="#3e3e3e" fill-rule="evenodd" data-name="Path 101"/><path d="M39.932 444.93H38.73a.687.687 0 1 0 0 1.375h1.202a.687.687 0 1 0 0-1.375Z" fill="#3e3e3e" fill-rule="evenodd" data-name="Path 102"/></g><g data-name="Group 46"><path d="M50.997 451.192v2.66a1.37 1.37 0 0 1-1.375 1.375h-1.664l.474-6.6 2.565 2.565Z" fill="#010101" fill-rule="evenodd" data-name="Path 103"/></g><path d="M47.072 460.62H30.375c-.76 0-1.375-.616-1.375-1.375v-10.48c0-.758.615-1.374 1.375-1.374h16.697c.76 0 1.375.616 1.375 1.374v10.479c0 .76-.615 1.376-1.375 1.376Z" fill="#4b9fd8" fill-rule="evenodd" data-name="Path 104"/><g data-name="Group 47"><path d="M37.882 447.39c-4.29 3.252-7.308 7.418-8.868 11.99a1.339 1.339 0 0 1-.014-.172v-10.477c0-.653.454-1.203 1.066-1.34h7.816Z" fill="#3a9bd6" fill-rule="evenodd" data-name="Path 105"/><path d="M39.566 460.62c4.29-3.252 7.308-7.418 8.868-11.99.007.055.014.11.014.172v10.477c0 .653-.454 1.203-1.066 1.34h-7.816Z" fill="#3a9bd6" fill-rule="evenodd" data-name="Path 106"/></g><path d="M40.631 451.028a1.675 1.675 0 1 1 0 .1z" fill="#fee218" fill-rule="evenodd" data-name="Ellipse 22"/><path d="M43.036 451.028a1.675 1.675 0 1 1 0 .1z" fill="#cd494c" fill-rule="evenodd" data-name="Ellipse 23"/><g data-name="Group 48"><path d="M34.754 455.343h-3.252a.687.687 0 1 1 0-1.375h3.252a.687.687 0 1 1 0 1.375Z" fill="#fff" fill-rule="evenodd" data-name="Path 107"/><path d="M37.66 451.815h-6.158a.687.687 0 1 1 0-1.375h6.157a.687.687 0 1 1 0 1.375Z" fill="#fff" fill-rule="evenodd" data-name="Path 108"/></g><path d="M33.515 458.871h-2.014a.687.687 0 1 1 0-1.375h2.014a.687.687 0 1 1 0 1.375Z" fill="#8bd5ec" fill-rule="evenodd" data-name="Path 109"/><path d="M37.66 458.871h-2.015a.687.687 0 1 1 0-1.375h2.014a.687.687 0 1 1 0 1.375Z" fill="#daeff6" fill-rule="evenodd" data-name="Path 110"/><path d="M41.803 458.871h-2.014a.687.687 0 1 1 0-1.375h2.014a.687.687 0 1 1 0 1.375Z" fill="#8bd5ec" fill-rule="evenodd" data-name="Path 111"/><path d="M45.946 458.871h-2.014a.687.687 0 1 1 0-1.375h2.014a.687.687 0 1 1 0 1.375Z" fill="#daeff6" fill-rule="evenodd" data-name="Path 112"/></g></svg>