<svg xmlns="http://www.w3.org/2000/svg" width="33.736" height="23.169" viewBox="416 296 33.736 23.169"><g data-name="credit-card-steps-icon"><g data-name="Group 67"><path d="M426.7 308.972c-.113 0-.188.056-.224.169-.037.111-.056.284-.056.518 0 .222.019.392.056.51.036.118.111.177.224.177s.187-.059.223-.177c.035-.118.053-.288.053-.51 0-.234-.018-.407-.053-.518-.036-.112-.11-.169-.223-.169Z" fill="#8e8e8e" fill-rule="evenodd" data-name="Path 228"/><path d="m420.664 313.375-.07.013a.47.47 0 0 0-.142.042.14.14 0 0 0-.072.131c0 .053.015.09.044.114.03.024.066.034.108.034.067 0 .13-.018.186-.057.056-.04.086-.11.088-.213v-.115a.399.399 0 0 1-.142.051Z" fill="#8e8e8e" fill-rule="evenodd" data-name="Path 229"/><path d="M423.835 312.943a.243.243 0 0 0-.183.067.317.317 0 0 0-.082.183h.53a.256.256 0 0 0-.082-.186.27.27 0 0 0-.183-.064Z" fill="#8e8e8e" fill-rule="evenodd" data-name="Path 230"/><path d="M423.659 310.348c.113 0 .187-.06.222-.178s.053-.287.053-.51c0-.234-.018-.406-.053-.519-.035-.112-.11-.168-.222-.168-.113 0-.188.056-.225.168-.037.113-.055.285-.055.519 0 .222.018.392.055.51.037.118.112.178.225.178Z" fill="#8e8e8e" fill-rule="evenodd" data-name="Path 231"/><path d="M419.095 310.348c.113 0 .187-.06.222-.178s.053-.287.053-.51c0-.234-.018-.406-.053-.519-.035-.112-.109-.168-.222-.168s-.188.056-.225.168c-.037.113-.054.285-.054.519 0 .222.017.392.054.51s.112.178.225.178Z" fill="#8e8e8e" fill-rule="evenodd" data-name="Path 232"/><path d="M420.616 308.972c-.113 0-.188.056-.225.169-.037.111-.055.284-.055.518 0 .222.018.392.055.51.037.118.112.177.225.177s.186-.059.222-.177c.036-.118.053-.288.053-.51 0-.234-.017-.407-.053-.518-.035-.112-.109-.169-.222-.169Z" fill="#8e8e8e" fill-rule="evenodd" data-name="Path 233"/><path d="m428.073 313.375-.07.013a.465.465 0 0 0-.142.042c-.048.028-.072.072-.072.131 0 .053.015.09.044.114.03.024.066.034.108.034a.32.32 0 0 0 .186-.057c.057-.04.086-.11.088-.213v-.115a.374.374 0 0 1-.142.051Z" fill="#8e8e8e" fill-rule="evenodd" data-name="Path 234"/><path d="M429.742 310.348c.113 0 .187-.06.223-.178.035-.118.053-.287.053-.51 0-.234-.018-.406-.053-.519-.035-.112-.11-.168-.223-.168s-.188.056-.224.168a1.807 1.807 0 0 0-.055.519c0 .222.018.392.055.51.036.118.111.178.224.178Z" fill="#8e8e8e" fill-rule="evenodd" data-name="Path 235"/><path d="M422.138 310.348c.113 0 .186-.06.222-.178.035-.118.053-.287.053-.51 0-.234-.018-.406-.053-.519-.036-.112-.11-.168-.222-.168-.113 0-.188.056-.225.168-.037.113-.055.285-.055.519 0 .222.018.392.055.51.037.117.111.178.225.178Z" fill="#8e8e8e" fill-rule="evenodd" data-name="Path 236"/><path d="M431.244 312.943a.243.243 0 0 0-.183.067.32.32 0 0 0-.082.183h.53a.258.258 0 0 0-.083-.186.27.27 0 0 0-.182-.064Z" fill="#8e8e8e" fill-rule="evenodd" data-name="Path 237"/><path d="M439.68 313.863h-.104l.021.065c.028-.023.05-.049.083-.065Z" fill="#8e8e8e" fill-rule="evenodd" data-name="Path 238"/><path d="M428.222 308.972c-.113 0-.188.056-.225.169a1.802 1.802 0 0 0-.055.518c0 .222.018.392.055.51.037.118.111.177.225.177.113 0 .186-.059.222-.177.035-.118.052-.288.052-.51 0-.234-.017-.407-.052-.518-.036-.112-.11-.169-.222-.169Z" fill="#8e8e8e" fill-rule="evenodd" data-name="Path 239"/><path d="M431.039 309.14c-.037.113-.055.285-.055.519 0 .222.018.393.055.51.036.119.111.178.225.178.113 0 .187-.059.222-.177.035-.119.053-.288.053-.511 0-.234-.018-.406-.053-.518-.035-.112-.11-.169-.222-.169-.113 0-.188.057-.225.169Z" fill="#8e8e8e" fill-rule="evenodd" data-name="Path 240"/><path d="M448.552 313.65c.025 0 .042.011.065.014v-.121c-.06.04-.122.076-.186.109l.121-.001Z" fill="#8e8e8e" fill-rule="evenodd" data-name="Path 241"/><path d="M437.687 316.272a1.173 1.173 0 0 1-.059-.145l-.132-.42-1.376-4.384-.835-2.539a1.72 1.72 0 0 1-.075-.359l-.198-.63h-2.285a1.27 1.27 0 0 1 0-2.537h3.216c.557 0 1.044.357 1.21.888l.152.484H448.617v-8.438c0-1.208-.97-2.192-2.163-2.192h-28.29c-1.194 0-2.164.984-2.164 2.192v16.454c0 1.208.97 2.192 2.163 2.192h20.032c-.22-.13-.399-.325-.508-.566Zm-7.554-3.233c-.027-.056-.078-.082-.151-.082-.085 0-.143.034-.176.105a.334.334 0 0 0-.025.134v.7h-.31v-.7c0-.07-.007-.12-.021-.151-.026-.057-.077-.086-.152-.086-.088 0-.147.03-.178.086a.33.33 0 0 0-.024.144v.708h-.312v-1.173h.298v.17a.487.487 0 0 1 .109-.13.367.367 0 0 1 .231-.07c.09 0 .163.02.218.06a.34.34 0 0 1 .102.142.39.39 0 0 1 .15-.153.462.462 0 0 1 .365-.018.347.347 0 0 1 .203.257c.008.039.011.097.011.173l-.002.74h-.315v-.748a.253.253 0 0 0-.021-.108Zm-1.968-.072a.326.326 0 0 0-.15-.027c-.073 0-.125.019-.156.054a.219.219 0 0 0-.044.108h-.296a.448.448 0 0 1 .087-.254c.08-.103.221-.154.42-.154.129 0 .243.025.344.076.1.05.15.147.15.29v.539c0 .037 0 .082.002.135.003.04.01.068.018.082.01.014.025.026.045.035v.045h-.334a.317.317 0 0 1-.02-.066.964.964 0 0 1-.008-.072.652.652 0 0 1-.147.119.454.454 0 0 1-.226.056.388.388 0 0 1-.265-.091.325.325 0 0 1-.105-.259c0-.144.057-.248.17-.314a.744.744 0 0 1 .27-.075l.106-.013a.54.54 0 0 0 .123-.027c.044-.018.066-.048.066-.087 0-.048-.016-.082-.05-.1Zm.057-2.31c-.248 0-.42-.087-.52-.26-.1-.173-.149-.419-.149-.738 0-.32.05-.567.15-.74.1-.174.272-.26.519-.26.246 0 .418.086.518.26.1.173.15.42.15.74s-.05.565-.15.738c-.1.173-.272.26-.518.26Zm.852-.998c0-.32.05-.566.15-.74.1-.173.272-.26.518-.26.248 0 .42.087.52.26.1.174.149.42.149.74s-.05.565-.15.739c-.1.172-.271.26-.519.26-.247 0-.42-.088-.518-.26-.1-.174-.15-.42-.15-.739Zm-1.855.739c-.1.172-.272.26-.518.26-.248 0-.42-.088-.52-.26-.1-.173-.149-.42-.149-.738 0-.32.05-.568.15-.74.099-.174.272-.261.519-.261.246 0 .418.087.518.26.1.173.149.42.149.74s-.05.565-.15.739Zm.055 1.908v1.59h-.332l-.647-1.127v1.127h-.31v-1.59h.349l.631 1.109v-1.109h.31Zm-3.588 1.337c.046.03.103.044.169.044a.26.26 0 0 0 .171-.054.254.254 0 0 0 .064-.081h.314a.388.388 0 0 1-.114.213c-.105.114-.252.171-.442.171a.636.636 0 0 1-.414-.145c-.12-.096-.18-.253-.18-.47 0-.204.054-.36.162-.468a.567.567 0 0 1 .42-.164c.103 0 .195.02.276.056.083.037.15.094.204.174.047.07.079.15.093.243.009.054.012.131.01.233h-.856c.004.118.045.2.123.248Zm-.962-.604c-.027-.056-.078-.082-.15-.082-.086 0-.145.034-.177.105a.325.325 0 0 0-.025.134v.7h-.31v-.7c0-.07-.006-.12-.021-.151-.026-.057-.077-.086-.152-.086-.088 0-.147.03-.177.086a.33.33 0 0 0-.025.144v.708h-.312v-1.173h.299v.17a.497.497 0 0 1 .108-.13.368.368 0 0 1 .232-.07c.09 0 .162.02.218.06a.344.344 0 0 1 .1.142.39.39 0 0 1 .15-.153.462.462 0 0 1 .366-.018.35.35 0 0 1 .204.257c.007.039.01.097.01.173l-.002.74h-.315v-.748a.231.231 0 0 0-.02-.108Zm-1.967-.072a.326.326 0 0 0-.15-.027c-.073 0-.125.019-.156.054a.219.219 0 0 0-.043.108h-.297a.447.447 0 0 1 .086-.254c.082-.103.222-.154.42-.154.13 0 .245.025.345.076.1.05.15.147.15.29v.539l.003.135c.002.04.008.068.018.082.01.014.025.026.045.035v.045h-.334a.358.358 0 0 1-.028-.138.655.655 0 0 1-.148.119.454.454 0 0 1-.226.056.39.39 0 0 1-.265-.091.325.325 0 0 1-.105-.259c0-.144.056-.248.169-.314a.744.744 0 0 1 .271-.075l.106-.013a.54.54 0 0 0 .123-.027c.044-.018.066-.048.066-.087 0-.048-.017-.082-.05-.1Zm.378-2.57c-.1.173-.272.26-.519.26s-.42-.087-.519-.26c-.1-.172-.149-.418-.149-.737 0-.32.05-.566.15-.74.099-.174.272-.26.518-.26.247 0 .419.086.519.26.1.174.15.42.15.74 0 .319-.05.564-.15.738Zm-1.774-6.246v-1.134h1.147v1.16h-1.144c0-.009-.003-.017-.003-.026Zm4.474 0c0 .009-.002.017-.003.026h-1.144v-1.16h1.147v1.134Zm-1.147.624h1.02a1.601 1.601 0 0 1-1.02.902v-.902Zm-.298-2.356h-.3v1.758h-.984v-2.902h1.13c.723 0 1.328.485 1.525 1.144h-1.371Zm-1.882 0h-1.073a1.594 1.594 0 0 1 1.073-1.071v1.071Zm0 2.356v.902a1.601 1.601 0 0 1-1.02-.902h1.02Zm.598 0h.984v.974h-.984v-.974Zm1.032 3.884c.247 0 .419.086.519.26.1.173.149.42.149.74s-.05.565-.15.738c-.1.172-.271.26-.518.26-.248 0-.42-.087-.52-.26-.1-.173-.149-.419-.149-.739 0-.319.05-.566.15-.74.099-.173.272-.26.519-.26Zm-3.043 0c.247 0 .419.086.519.26.1.173.149.42.149.74s-.05.565-.149.738c-.1.172-.272.26-.519.26s-.42-.087-.519-.26c-.1-.173-.15-.419-.15-.739 0-.319.05-.566.15-.74.1-.173.272-.26.52-.26Zm-.518 3.647h.349l.631 1.109v-1.109h.31v1.59h-.333l-.648-1.127v1.127h-.31v-1.59Zm4.414-2.647c0-.32.05-.566.15-.74.099-.173.271-.26.518-.26s.419.087.518.26c.1.174.149.42.149.74s-.05.565-.149.739c-.1.172-.272.26-.518.26-.247 0-.42-.088-.519-.26-.1-.174-.15-.42-.15-.739Zm8.103 3.984a.31.31 0 0 0 .17.044c.07 0 .126-.018.17-.054a.261.261 0 0 0 .064-.081h.314a.385.385 0 0 1-.114.213c-.105.114-.253.171-.442.171a.638.638 0 0 1-.414-.145c-.12-.096-.18-.253-.18-.47 0-.204.054-.36.162-.468a.568.568 0 0 1 .42-.164c.103 0 .195.02.277.056.082.037.15.094.203.174.048.07.08.15.094.243.009.054.012.131.01.233h-.856c.003.118.045.2.122.248Zm.689-4.724c.099.174.149.42.149.74s-.05.565-.15.739c-.1.172-.272.26-.518.26-.247 0-.42-.088-.519-.26-.1-.174-.15-.42-.15-.739 0-.32.05-.566.15-.74.1-.173.272-.26.519-.26.246 0 .42.086.519.26Zm10.467-4.393c-.45 0-.872-.111-1.254-.294a2.97 2.97 0 0 1-1.6.473 3.002 3.002 0 0 1-2.998-2.998 3.002 3.002 0 0 1 2.998-2.999c.512 0 .988.141 1.41.37a2.887 2.887 0 0 1 1.444-.397 2.926 2.926 0 0 1 2.923 2.923 2.927 2.927 0 0 1-2.923 2.922Z" fill="#8e8e8e" fill-rule="evenodd" data-name="Path 242"/><path d="M439.9 301.526h-.565c.003-.13.018-.256.038-.381h2.17a2.55 2.55 0 0 0-.133-.454h-1.924c.045-.135.098-.265.162-.392h1.564a2.633 2.633 0 0 0-.345-.454h-.936c.108-.142.228-.275.36-.395a2.412 2.412 0 0 0-.895-.176 2.436 2.436 0 0 0-2.433 2.432 2.436 2.436 0 0 0 2.433 2.433c.378 0 .734-.095 1.054-.25a3.068 3.068 0 0 1-.298-.26h.452c.07-.054.124-.126.188-.188.09-.087.187-.165.263-.265H439.794a2.842 2.842 0 0 1-.192-.35h1.677a2.5 2.5 0 0 0 .188-.454h-2.025a3.092 3.092 0 0 1-.078-.392h2.191c.017-.117.036-.234.036-.357 0-.033-.009-.064-.01-.097h-1.68Z" fill="#8e8e8e" fill-rule="evenodd" data-name="Path 243"/><path d="M448.617 307.196H436.89l-.277-.88a.702.702 0 0 0-.67-.493h-3.216a.703.703 0 1 0 0 1.405h2.7l.341 1.087c.007.096.023.194.055.291l.834 2.54 1.432 4.56.079.252a.7.7 0 0 0 .213.314c.125.11.283.178.458.178h8.556a.703.703 0 0 0 .703-.703.696.696 0 0 0-.178-.456.69.69 0 0 0-.512-.244l-.013-.002h-8.04l-.549-1.747h8.782c.16 0 .317-.032.464-.089a1.39 1.39 0 0 0 .847-.966l.81-3.69a1.118 1.118 0 0 0-.213-.947c-.209-.26-.53-.41-.88-.41Zm-1.072 4.695h-.059l-9.075.003c-.009-.003-.023-.012-.029-.012-.001 0-.002.001-.002.005l-.308-.938h9.677l-.204.942Zm.51-2.347H437.61l-.31-.943H448.26l-.205.943Z" fill="#8e8e8e" fill-rule="evenodd" data-name="Path 244"/><path d="M439.19 318.117a1.003 1.003 0 1 1 0 .1z" fill="#8e8e8e" fill-rule="evenodd" data-name="Ellipse 36"/><path d="M445.4 318.117a1.003 1.003 0 1 1 0 .1z" fill="#8e8e8e" fill-rule="evenodd" data-name="Ellipse 37"/></g></g></svg>