<svg xmlns="http://www.w3.org/2000/svg" width="33.7" height="28.86" viewBox="292 324 33.7 28.86"><g data-name="discount-coupon-icon"><path d="m325.556 332.78-1.673-1.791 1.208-.902c.274-.205.303-.56.064-.795l-5.19-5.099a.702.702 0 0 0-.452-.192.731.731 0 0 0-.478.138l-3.78 2.829-4.167-2.845c-.284-.194-.699-.154-.925.09l-5.155 5.536h-9.717c-.2 0-.389.078-.514.212l-2.633 2.818a.516.516 0 0 0-.144.352v19.165c0 .312.295.564.658.564h32.384c.363 0 .658-.252.658-.564v-19.165a.516.516 0 0 0-.144-.352Zm-6.151-7.42 4.325 4.248-10.004 7.47h-9.982l15.66-11.719Zm-8.623-.004 3.465 2.366-12.504 9.355h-1.874l10.913-11.721Zm-17.466 7.973 2.291-2.452h8.351l-5.183 5.568-1.702-1.458a.72.72 0 0 0-.466-.165h-3.29v-1.493Zm31.068 18.404h-31.068v-13.528h1.702l2.44 2.09c.124.105.291.164.466.164h21.852c.175 0 .342-.06.466-.165l2.44-2.09h1.702v13.529Zm0-14.656h-1.975a.718.718 0 0 0-.465.165l-2.44 2.09h-21.307l-2.44-2.09a.718.718 0 0 0-.466-.165h-1.975v-1.127h3.019l2.44 2.09c.123.105.29.165.465.165h19.22c.174 0 .342-.06.465-.166l2.44-2.09h3.019v1.128Zm0-2.255h-3.291a.718.718 0 0 0-.466.166l-2.44 2.09h-2.458l7.161-5.348 1.494 1.6v1.492Zm0 0" fill="#8e8e8e" fill-rule="evenodd" data-name="Path 255"/><path d="M318.224 332.183a.52.52 0 0 0 .523.56.526.526 0 0 0 .344-.129l3.163-2.758a.525.525 0 0 0-.689-.79l-3.163 2.757a.52.52 0 0 0-.178.36Zm0 0" fill="#8e8e8e" fill-rule="evenodd" data-name="Path 256"/><path d="M319.258 328.044a.522.522 0 0 0 .345-.13l.04-.034a.524.524 0 1 0-.69-.79l-.04.034a.524.524 0 0 0 .345.92Zm0 0" fill="#8e8e8e" fill-rule="evenodd" data-name="Path 257"/><path d="M315.601 331.125a.522.522 0 0 0 .345-.129l1.542-1.344a.525.525 0 0 0-.69-.79l-1.542 1.343a.525.525 0 0 0 .345.92Zm0 0" fill="#8e8e8e" fill-rule="evenodd" data-name="Path 258"/><path d="M303.507 342.967a.524.524 0 0 0-.74.058l-4.93 5.77a.524.524 0 1 0 .797.682l4.931-5.77a.524.524 0 0 0-.058-.74Zm0 0" fill="#8e8e8e" fill-rule="evenodd" data-name="Path 259"/><path d="M298.294 343.834c0-.868-.705-1.573-1.573-1.573s-1.574.705-1.574 1.573.706 1.574 1.574 1.574c.868 0 1.573-.706 1.573-1.574Zm-2.098 0a.525.525 0 1 1 1.05.001.525.525 0 0 1-1.05 0Zm0 0" fill="#8e8e8e" fill-rule="evenodd" data-name="Path 260"/><path d="M304.321 346.513c-.868 0-1.573.706-1.573 1.574 0 .867.705 1.573 1.573 1.573s1.574-.706 1.574-1.573c0-.868-.706-1.574-1.574-1.574Zm0 2.098a.525.525 0 1 1 .001-1.05.525.525 0 0 1 0 1.05Zm0 0" fill="#8e8e8e" fill-rule="evenodd" data-name="Path 261"/><path d="M321.976 343.388h-8.917a.525.525 0 1 0 0 1.05h8.917a.525.525 0 0 0 0-1.05Zm0 0" fill="#8e8e8e" fill-rule="evenodd" data-name="Path 262"/><path d="M312.204 346.699a.524.524 0 1 0 0-1.05h-2.046a.525.525 0 0 0 0 1.05h2.046Zm0 0" fill="#8e8e8e" fill-rule="evenodd" data-name="Path 263"/><path d="M321.976 345.65h-4.774a.525.525 0 1 0 0 1.049h4.774a.525.525 0 1 0 0-1.05Zm0 0" fill="#8e8e8e" fill-rule="evenodd" data-name="Path 264"/><path d="M321.976 348.192h-1.574a.525.525 0 0 0 0 1.049h1.574a.526.526 0 0 0 0-1.05Zm0 0" fill="#8e8e8e" fill-rule="evenodd" data-name="Path 265"/><path d="M316.482 348.192a.525.525 0 1 0 0 1.05.525.525 0 0 0 0-1.05Zm0 0" fill="#8e8e8e" fill-rule="evenodd" data-name="Path 266"/><path d="M313.497 348.192h-3.147a.525.525 0 0 0 0 1.049h3.147a.525.525 0 0 0 0-1.05Zm0 0" fill="#8e8e8e" fill-rule="evenodd" data-name="Path 267"/></g></svg>