<svg xmlns="http://www.w3.org/2000/svg" width="22" height="22" viewBox="31 544 22 22"><g data-name="dollar-icon"><path d="M42 544c-6.065 0-11 4.935-11 11 0 6.066 4.935 11 11 11 6.066 0 11-4.934 11-11 0-6.065-4.935-11-11-11Zm0 20.55c-5.266 0-9.55-4.284-9.55-9.55 0-5.266 4.284-9.55 9.55-9.55 5.266 0 9.55 4.284 9.55 9.55 0 5.266-4.285 9.55-9.55 9.55Zm.538-10.913-.205-.067v-3.178c.466.039.805.165 1.018.378.27.268.404.712.404 1.33h2.152c0-1.105-.34-1.96-1.019-2.562-.613-.541-1.465-.84-2.554-.895v-1.158h-.764v1.183c-.996.06-1.801.364-2.414.912-.701.63-1.052 1.48-1.052 2.553 0 .877.29 1.58.872 2.111.536.488 1.401.92 2.594 1.298v3.515c-.438-.066-.777-.23-1.018-.493-.307-.345-.443-.875-.41-1.593h-2.283l-.01.296c0 1.139.324 2.01.97 2.612.647.602 1.564.94 2.752 1.01v1.626h.764v-1.635c1.11-.047 2.01-.371 2.694-.969.75-.65 1.126-1.528 1.126-2.636 0-.947-.275-1.695-.824-2.242-.55-.553-1.48-1.019-2.793-1.396Zm-.97-.329a3.469 3.469 0 0 1-.8-.435c-.356-.274-.534-.608-.534-1.003 0-.47.156-.837.47-1.1.226-.192.512-.313.864-.362v2.9Zm1.825 5.33c-.273.24-.628.383-1.06.428v-3.285c.51.165.88.358 1.11.583.302.28.452.636.452 1.068 0 .513-.167.916-.502 1.206Z" fill="#54bad5" fill-rule="evenodd" data-name="Path 90"/></g></svg>