<svg xmlns="http://www.w3.org/2000/svg" width="10006.438" height="31.107" viewBox="105 242 10006.438 31.107"><g data-name="outline"><path d="m115.44 271.534.964-14.465a.518.518 0 0 0-.517-.552h-10.369a.518.518 0 0 0-.517.553l.964 14.464a1.69 1.69 0 0 0 1.681 1.573h6.113a1.69 1.69 0 0 0 1.681-1.573Zm-9.368-13.98h9.261l-.207 3.11h-8.846l-.208-3.11Zm.928 13.911-.651-9.764h8.708l-.651 9.764a.65.65 0 0 1-.647.605h-6.113a.65.65 0 0 1-.646-.605Z" fill="#8e8e8e" fill-rule="evenodd" data-name="Path 194"/><path d="M111.562 264.293a.518.518 0 0 0-.152-.366l-1.467-1.467a.519.519 0 0 0-.733 0l-1.466 1.467a.518.518 0 0 0 0 .733l1.466 1.466c.203.203.53.203.733 0l1.467-1.466a.518.518 0 0 0 .152-.367Zm-1.985.734-.733-.734.733-.733.733.733-.733.734Z" fill="#8e8e8e" fill-rule="evenodd" data-name="Path 195"/><path d="m113.498 268.13-1.908-.813a.518.518 0 0 0-.68.274l-.813 1.908a.518.518 0 0 0 .274.68l1.908.813a.518.518 0 0 0 .68-.274l.813-1.908a.518.518 0 0 0-.274-.68Zm-1.29 1.705-.953-.406.406-.954.954.406-.406.954Z" fill="#8e8e8e" fill-rule="evenodd" data-name="Path 196"/><path d="M107.443 268.453a.5.5 0 1 1 0 .1z" fill="#8e8e8e" fill-rule="evenodd" data-name="Ellipse 27"/><path d="M111.443 265.953a9999.995.05 0 1 1 0 .1z" fill="#8e8e8e" fill-rule="evenodd" data-name="Ellipse 28"/><path d="M108.443 270.453a.5.5 0 1 1 0 .1z" fill="#8e8e8e" fill-rule="evenodd" data-name="Ellipse 29"/><path d="M113.443 264.453v.1z" fill="#8e8e8e" fill-rule="evenodd" data-name="Ellipse 30"/><path d="M108.443 266.953a4999.997.05 0 1 1 0 .1z" fill="#8e8e8e" fill-rule="evenodd" data-name="Ellipse 31"/><path d="M113.443 263.453v.1z" fill="#8e8e8e" fill-rule="evenodd" data-name="Ellipse 32"/><path d="M129.885 259.109v-6.347c0-.62-.113-1.233-.335-1.811a4.97 4.97 0 0 0-.824-1.387l-2.69-3.244a1.299 1.299 0 0 1-.298-.827v-.382a.518.518 0 0 0 .518-.519v-1.685c0-.5-.406-.906-.907-.907h-3.37c-.5 0-.907.406-.907.907v1.685c0 .287.232.519.518.519v.382a1.3 1.3 0 0 1-.298.827l-2.69 3.244a4.969 4.969 0 0 0-.823 1.387 5.035 5.035 0 0 0-.336 1.811v6.347c-.001.643.122 1.28.361 1.877l.186.464c.29.722.29 1.528 0 2.25a7.614 7.614 0 0 0-.547 2.84v3.586a2.985 2.985 0 0 0 2.98 2.981 6.05 6.05 0 0 0 2-.338 2.448 2.448 0 0 0 2.483 0 6.05 6.05 0 0 0 1.998.338 2.984 2.984 0 0 0 2.981-2.981v-3.586c.001-.973-.184-1.937-.546-2.84a3.017 3.017 0 0 1 0-2.25l.185-.464c.24-.597.362-1.234.361-1.877Zm-10.144-.519 9.108-5.795v5.795h-9.108Zm-1.262-5.828c0-.132.007-.263.02-.393h9.088l-9.108 5.795v-5.402Zm3.63-9.725h3.11v1.037h-3.11v-1.037Zm-2.709 7.19 2.69-3.245c.347-.419.537-.945.537-1.489v-.382h2.074v.382c0 .544.19 1.07.537 1.49l2.69 3.243c.276.328.497.698.654 1.096l.003.01h-9.842l.003-.01c.157-.398.378-.768.654-1.096Zm9.449 19.899a1.946 1.946 0 0 1-1.945 1.944 5.025 5.025 0 0 1-1.873-.36.518.518 0 0 0-.507.068c-.507.39-1.213.39-1.721 0a.518.518 0 0 0-.507-.069 5.025 5.025 0 0 1-1.872.361 1.946 1.946 0 0 1-1.945-1.944v-3.586c0-.841.16-1.674.474-2.455.39-.969.39-2.051 0-3.02l-.186-.464a4.003 4.003 0 0 1-.253-.974h10.3a3.998 3.998 0 0 1-.253.974l-.185.464a4.049 4.049 0 0 0 0 3.02 6.58 6.58 0 0 1 .473 2.455v3.586Z" fill="#8e8e8e" fill-rule="evenodd" data-name="Path 197"/><path d="M126.775 263.256a.518.518 0 0 0-.519.519v.26a.26.26 0 0 1-.518 0v-1.297a.518.518 0 1 0-1.037 0v1.296a1.296 1.296 0 0 0 2.592 0v-.259a.518.518 0 0 0-.518-.519Z" fill="#8e8e8e" fill-rule="evenodd" data-name="Path 198"/><path d="M120.553 263.775a.518.518 0 0 0-.518.518v.519a.518.518 0 1 0 1.037 0v-.519a.518.518 0 0 0-.519-.518Z" fill="#8e8e8e" fill-rule="evenodd" data-name="Path 199"/><path d="M122.109 265.33a.518.518 0 0 0-.519.519v.518a.518.518 0 0 0 1.037 0v-.518a.518.518 0 0 0-.518-.519Z" fill="#8e8e8e" fill-rule="evenodd" data-name="Path 200"/><path d="M120.035 266.886a.518.518 0 0 0-.519.518v.519a.518.518 0 1 0 1.037 0v-.519a.518.518 0 0 0-.518-.518Z" fill="#8e8e8e" fill-rule="evenodd" data-name="Path 201"/></g></svg>