<svg xmlns="http://www.w3.org/2000/svg" width="19.096" height="19" viewBox="105 131 19.096 19"><g data-name="edit-icon"><path d="M122.625 142.924a.476.476 0 0 0-.476.475v4.223c0 .788-.639 1.426-1.427 1.427h-13.344c-.788-.001-1.426-.64-1.427-1.427v-12.393c.001-.788.64-1.426 1.427-1.427h4.223a.476.476 0 1 0 0-.951h-4.223a2.38 2.38 0 0 0-2.378 2.378v12.393a2.38 2.38 0 0 0 2.378 2.378h13.344a2.38 2.38 0 0 0 2.378-2.378V143.4a.476.476 0 0 0-.475-.475Zm0 0" fill="#646464" fill-rule="evenodd" data-name="Path 113"/><path d="M122.912 131.627a2.14 2.14 0 0 0-3.027 0l-8.484 8.485a.475.475 0 0 0-.122.209l-1.116 4.028a.475.475 0 0 0 .585.586l4.028-1.116a.476.476 0 0 0 .21-.122l8.484-8.485a2.143 2.143 0 0 0 0-3.027l-.558-.558Zm-10.475 8.794 6.944-6.945 2.24 2.24-6.945 6.944-2.24-2.24Zm-.448.897 1.79 1.79-2.475.686.685-2.476Zm10.809-6.779-.505.504-2.24-2.24.505-.504a1.189 1.189 0 0 1 1.681 0l.559.558a1.19 1.19 0 0 1 0 1.682Zm0 0" fill="#646464" fill-rule="evenodd" data-name="Path 114"/></g></svg>