<svg xmlns="http://www.w3.org/2000/svg" width="33.234" height="24.697" viewBox="329.633 246.901 33.234 24.697"><g data-name="foods-icon"><path d="m346.706 259.661.996.38a.485.485 0 0 0 .629-.281.487.487 0 0 0-.282-.629l-.996-.38a.487.487 0 0 0-.347.91Z" fill="#8e8e8e" fill-rule="evenodd" data-name="Path 222"/><path d="M361.091 261.38h-.264c.464-.301.865-.672 1.113-1.126.282-.517.337-1.078.163-1.667-.16-.543-.47-.958-.92-1.24.219-.553.334-1.149.334-1.747a4.757 4.757 0 0 0-4.752-4.752c-1.268 0-2.469.504-3.357 1.392l-2.25-3.224a.486.486 0 0 0-.716-.09 6.078 6.078 0 0 0-1.465 1.881c-.5.049-.97.267-1.337.496-.084-.779-.282-1.9-.753-2.806a.487.487 0 0 0-.864.45c.683 1.313.704 3.283.704 3.302a.487.487 0 0 0 .831.341c.007-.006.45-.44.994-.675a6.101 6.101 0 0 0 .317 4.136l-4.369 1.956c-.993-1.72-2.023-2.531-3.065-2.415a2.127 2.127 0 0 0-.722.203c-.784-1.25-1.09-2.224-.82-2.632.101-.154.41-.621 1.345-.41.554.125 1.023.419 1.027.421a.487.487 0 0 0 .738-.514 9.568 9.568 0 0 1-.182-1.456c-.049-.951.032-2.068.508-2.73.249-.347.586-.539 1.031-.588.138-.015.27-.015.392.001a.486.486 0 1 0 .124-.965 2.625 2.625 0 0 0-.622-.004c-.725.08-1.302.412-1.715.987-.404.561-.634 1.34-.69 2.322a4.712 4.712 0 0 0-2.567-.752 4.757 4.757 0 0 0-4.752 4.751c0 .923.264 1.813.763 2.582-.032.265-.024.534.01.79-.947-.272-2.458-.559-3.531-.046-.576.276-.963.735-1.15 1.366-.32 1.085.164 1.89.837 2.463h-.05c-.98 0-1.776.796-1.776 1.776v.104c0 .98.796 1.776 1.775 1.776h1.61l3.905 3.805a1.658 1.658 0 0 0-.457 1.144v.013c0 .897.73 1.6 1.664 1.6h16.24c.933 0 1.664-.703 1.664-1.6v-.013c0-.443-.174-.846-.457-1.144l3.905-3.805h1.61c.979 0 1.775-.797 1.775-1.776v-.104c0-.98-.796-1.776-1.776-1.776Zm-.006-1.593c-.326.6-1.256 1.16-2.55 1.54a.484.484 0 0 0-.12.054h-9.05a6.053 6.053 0 0 0 .868-4.745c.344-.303.662-.44.948-.408.478.054.578.243.61.305.206.388-.075 1.176-.244 1.497a.487.487 0 0 0 .81.532c.792-.992 2.018-2.18 2.878-2.592a.485.485 0 0 0 .106-.048c.245-.102.456-.133.61-.067.24.104.558.325.526 1.04a3.21 3.21 0 0 1-.2.935.487.487 0 0 0 .635.636c.655-.27 2.582-.864 3.621-.367.321.154.53.403.636.764.1.337.072.64-.084.924Zm-14.91 1.245-.436-.973a.487.487 0 0 0-.89.397l.415.925h-1.534l.179-.468a.487.487 0 1 0-.91-.347l-.311.815h-2.265c-.008-.01-.2-.245-.282-.357l9.158-4.098a5.175 5.175 0 0 1-1.072 4.355.486.486 0 0 0-.063.1h-1.972a.484.484 0 0 0-.018-.35Zm8.922-6.371c.336-.6.97-.976 1.668-.976a1.917 1.917 0 0 1 1.203 3.405.49.49 0 0 0-.05.048 9.94 9.94 0 0 0-.496.128c.113-.852-.056-1.86-1.086-2.305-.313-.135-.665-.149-1.058-.04l-.181-.26Zm1.668-2.839a3.782 3.782 0 0 1 3.507 5.182 4.327 4.327 0 0 0-.947-.064 2.892 2.892 0 0 0-2.56-4.23c-.898 0-1.726.414-2.265 1.096l-.524-.752a3.77 3.77 0 0 1 2.79-1.232Zm-6.08-1.783 3.694 5.295a8.242 8.242 0 0 0-1.174.912c-.133.121-.263.244-.386.365a1.591 1.591 0 0 0-.166-.531c-.17-.323-.544-.727-1.363-.82-.5-.055-1 .104-1.493.476a5.126 5.126 0 0 1 .889-5.697Zm-10.664 6.48a1.64 1.64 0 0 0-.115.424 13.619 13.619 0 0 0-.386-.366c-.673-.613-1.269-1.022-1.795-1.231l-.015-.025a1.917 1.917 0 0 1 1.572-3.01l.049.002a2.17 2.17 0 0 0-.25.313c-.542.819-.234 2.093.94 3.894Zm-4.517-2.292a3.782 3.782 0 0 1 3.778-3.778c.969 0 1.879.36 2.58 1.02.013.163.027.319.043.461a3.41 3.41 0 0 0-1.173-.202 2.892 2.892 0 0 0-4.16 3.5 1.832 1.832 0 0 0-.773.461 3.769 3.769 0 0 1-.295-1.462Zm-2.207 7.118c-1.403-.587-1.989-1.31-1.74-2.15.106-.36.313-.61.634-.764 1.035-.496 2.966.096 3.622.366a.487.487 0 0 0 .636-.634c-.002-.004-.18-.449-.201-.937-.032-.714.285-.935.526-1.04.695-.298 2.533 1.38 3.593 2.707a.487.487 0 0 0 .811-.53c-.169-.322-.45-1.11-.245-1.499.033-.061.133-.25.611-.304.585-.066 1.326.602 2.062 1.847l-4.382 1.96a.487.487 0 0 0-.223.688c.064.111.133.22.204.326h-5.839a.476.476 0 0 0-.069-.036Zm21.764 8.654c0 .41-.348.626-.69.626h-16.242c-.343 0-.69-.215-.69-.626v-.013c0-.381.31-.69.69-.69h16.241c.38 0 .69.309.69.69v.013Zm6.832-6.738c0 .443-.36.802-.802.802h-22.145a.487.487 0 0 0 0 .974h19.14l-3.37 3.285h-16.932l-3.37-3.285h2.585a.487.487 0 0 0 0-.974h-5.59a.803.803 0 0 1-.803-.802v-.104c0-.443.36-.802.802-.802h29.683c.443 0 .802.36.802.802v.104Z" fill="#8e8e8e" fill-rule="evenodd" data-name="Path 223"/><path d="M350.934 254.396h.02l.916-.036a.487.487 0 1 0-.038-.973l-.916.036a.487.487 0 0 0 .018.973Z" fill="#8e8e8e" fill-rule="evenodd" data-name="Path 224"/></g></svg>