<svg xmlns="http://www.w3.org/2000/svg" width="22.48" height="20" viewBox="28 241 22.48 20"><path d="M39.24 261c-.32 0-.629-.116-.869-.327-.908-.794-1.784-1.54-2.556-2.198l-.004-.004c-2.265-1.93-4.22-3.596-5.581-5.238-1.521-1.836-2.23-3.576-2.23-5.477 0-1.847.633-3.551 1.783-4.799A6.045 6.045 0 0 1 34.28 241c1.298 0 2.486.41 3.532 1.22a7.226 7.226 0 0 1 1.428 1.49c.422-.583.9-1.082 1.428-1.49 1.046-.81 2.235-1.22 3.532-1.22 1.736 0 3.333.695 4.497 1.957 1.15 1.248 1.783 2.952 1.783 4.799 0 1.901-.708 3.641-2.23 5.477-1.36 1.642-3.316 3.308-5.58 5.238-.774.66-1.65 1.407-2.561 2.203a1.32 1.32 0 0 1-.869.326Zm-4.96-18.683a4.743 4.743 0 0 0-3.529 1.533c-.925 1.003-1.434 2.39-1.434 3.906 0 1.599.594 3.029 1.926 4.637 1.288 1.554 3.204 3.186 5.422 5.076l.004.004c.775.66 1.654 1.41 2.57 2.21.92-.802 1.8-1.552 2.577-2.214 2.218-1.89 4.133-3.522 5.42-5.076 1.333-1.608 1.927-3.038 1.927-4.637 0-1.515-.51-2.903-1.434-3.906a4.742 4.742 0 0 0-3.529-1.533c-.999 0-1.916.318-2.726.944-.722.558-1.225 1.264-1.52 1.758a.825.825 0 0 1-.714.406.825.825 0 0 1-.714-.406c-.295-.494-.797-1.2-1.52-1.758a4.367 4.367 0 0 0-2.726-.944Zm0 0" fill="red" fill-rule="evenodd" data-name="heart-icon"/></svg>