<svg xmlns="http://www.w3.org/2000/svg" width="21.135" height="21.135" viewBox="34 947 21.135 21.135"><g data-name="icon-help"><g data-name="Group 76"><g data-name="Group 75"><path d="M43.535 962.524a1.032 1.032 0 1 1 0 .1z" fill-rule="evenodd" data-name="Ellipse 64"/><path d="M44.567 947A10.562 10.562 0 0 0 34 957.567c0 5.84 4.726 10.568 10.567 10.568 5.84 0 10.568-4.727 10.568-10.568 0-5.84-4.727-10.567-10.568-10.567Zm0 19.484a8.911 8.911 0 0 1-8.916-8.917 8.911 8.911 0 0 1 8.916-8.916 8.911 8.911 0 0 1 8.917 8.916 8.911 8.911 0 0 1-8.917 8.917Z" fill-rule="evenodd" data-name="Path 307"/><path d="M44.567 952.304a3.306 3.306 0 0 0-3.302 3.303.826.826 0 1 0 1.651 0c0-.91.74-1.652 1.651-1.652.91 0 1.652.741 1.652 1.652 0 .91-.741 1.65-1.652 1.65a.826.826 0 0 0-.825.826v2.064a.826.826 0 1 0 1.651 0v-1.343a3.308 3.308 0 0 0 2.477-3.197 3.306 3.306 0 0 0-3.303-3.303Z" fill-rule="evenodd" data-name="Path 308"/></g></g></g></svg>