<svg xmlns="http://www.w3.org/2000/svg" width="25" height="25" viewBox="30 817.95 25 25"><g data-name="instagram-icon"><path d="M30 830.4a12.5 12.5 0 1 1 0 .1z" fill="#6c27b3" fill-rule="evenodd" data-name="Ellipse 26"/><path d="M48.269 824.48c-1.492.19-3.047.183-4.611.034-2.186-.168-5.38-1.177-6.556.84-1.89 3.23-.958 7.364-.517 11.022l6.568 6.568c6.357-.338 11.452-5.432 11.79-11.788l-6.674-6.676Z" fill="#501a96" fill-rule="evenodd" data-name="Path 131"/><g data-name="Group 55"><path d="M45.369 823.337h-5.776a4.261 4.261 0 0 0-4.256 4.256v5.776a4.261 4.261 0 0 0 4.256 4.256h5.776a4.261 4.261 0 0 0 4.256-4.256v-5.776a4.261 4.261 0 0 0-4.256-4.256Zm2.819 10.032a2.82 2.82 0 0 1-2.82 2.819h-5.775a2.82 2.82 0 0 1-2.819-2.82v-5.775a2.82 2.82 0 0 1 2.82-2.819h5.775a2.82 2.82 0 0 1 2.819 2.82v5.775Z" fill="#fff" fill-rule="evenodd" data-name="Path 132"/><path d="M42.481 826.786a3.7 3.7 0 0 0-3.695 3.695 3.7 3.7 0 0 0 3.695 3.695 3.7 3.7 0 0 0 3.695-3.695 3.7 3.7 0 0 0-3.695-3.695Zm0 5.953a2.258 2.258 0 1 1 0-4.516 2.258 2.258 0 0 1 0 4.516Z" fill="#fff" fill-rule="evenodd" data-name="Path 133"/></g><g data-name="Group 56"><path d="M47.069 826.813a.886.886 0 1 1-1.771 0 .886.886 0 0 1 1.77 0Z" fill="#d1d1d1" fill-rule="evenodd" data-name="Path 134"/><path d="M45.369 823.337h-2.916v1.437h2.916a2.82 2.82 0 0 1 2.819 2.82v5.775a2.82 2.82 0 0 1-2.82 2.819h-2.915v1.437h2.916a4.261 4.261 0 0 0 4.256-4.256v-5.776a4.261 4.261 0 0 0-4.256-4.256Z" fill="#d1d1d1" fill-rule="evenodd" data-name="Path 135"/><path d="M42.481 826.786h-.028v1.438l.028-.001a2.258 2.258 0 0 1 0 4.516h-.028v1.437h.028a3.7 3.7 0 0 0 3.695-3.695 3.7 3.7 0 0 0-3.695-3.695Z" fill="#d1d1d1" fill-rule="evenodd" data-name="Path 136"/></g></g></svg>