<svg xmlns="http://www.w3.org/2000/svg" width="18.504" height="18.504"><g data-name="Group 50"><path d="M15.794 2.71A9.192 9.192 0 0 0 9.252 0 9.192 9.192 0 0 0 2.71 2.71 9.192 9.192 0 0 0 0 9.252c0 2.471.962 4.795 2.71 6.542a9.192 9.192 0 0 0 6.542 2.71 9.192 9.192 0 0 0 6.542-2.71 9.192 9.192 0 0 0 2.71-6.542 9.192 9.192 0 0 0-2.71-6.542ZM7.497 1.275c-.31.301-.645.661-.981 1.08a11.25 11.25 0 0 0-1.442 2.323H2.488a8.19 8.19 0 0 1 5.01-3.403ZM1.868 5.762h2.777c-.316.944-.5 1.931-.548 2.948H1.103a8.107 8.107 0 0 1 .765-2.948Zm-.765 4.032h2.994c.048 1.016.232 2.004.548 2.948H1.868a8.107 8.107 0 0 1-.765-2.948Zm1.385 4.032h2.586c.378.82.862 1.599 1.442 2.323.336.419.67.778.981 1.08a8.19 8.19 0 0 1-5.009-3.403ZM8.71 16.87a10.658 10.658 0 0 1-2.43-3.045h2.43v3.045Zm0-4.13H5.79a9.701 9.701 0 0 1-.608-2.947H8.71v2.948Zm0-4.031H5.182a9.7 9.7 0 0 1 .609-2.948H8.71V8.71Zm0-4.032H6.28c.294-.559.646-1.097 1.056-1.613.488-.613.98-1.09 1.374-1.43v3.043ZM17.4 8.71h-2.994a10.876 10.876 0 0 0-.548-2.948h2.777c.429.905.696 1.9.765 2.948Zm-1.385-4.032H13.43a11.25 11.25 0 0 0-1.442-2.323 11.828 11.828 0 0 0-.981-1.08 8.19 8.19 0 0 1 5.009 3.403ZM9.794 1.633a10.657 10.657 0 0 1 2.43 3.045h-2.43V1.633Zm0 4.13h2.92a9.7 9.7 0 0 1 .608 2.947H9.794V5.762Zm0 4.031h3.528a9.7 9.7 0 0 1-.609 2.948H9.794V9.794Zm0 7.075v-3.043h2.43a10.654 10.654 0 0 1-2.43 3.043Zm1.213.36c.31-.302.645-.661.981-1.08a11.25 11.25 0 0 0 1.442-2.323h2.586a8.19 8.19 0 0 1-5.01 3.403Zm5.629-4.487h-2.777c.316-.944.5-1.932.548-2.948h2.994a8.106 8.106 0 0 1-.765 2.948Z" fill-rule="evenodd" data-name="Path 121"/></g></svg>