<svg xmlns="http://www.w3.org/2000/svg" width="22.079" height="22.078" viewBox="33 988 22.079 22.078"><g data-name="icon-legal"><g data-name="Group 78"><g data-name="Group 77"><path d="M38.079 995.518a.431.431 0 1 0-.61.61.431.431 0 0 0 .61-.61Z" fill-rule="evenodd" data-name="Path 309"/></g></g><g data-name="Group 80"><g data-name="Group 79"><path d="M43.919 1007.307a1.51 1.51 0 0 0-1.216-2.403h-7.331a1.5 1.5 0 0 0-1.068.441 1.5 1.5 0 0 0-.442 1.068c0 .334.11.643.294.893a2.158 2.158 0 0 0-1.156 1.91v.43c0 .239.193.432.431.432h11.212a.431.431 0 0 0 .43-.431v-.432c0-.827-.468-1.547-1.154-1.908Zm-9.005-1.352a.642.642 0 0 1 .458-.19h7.33a.648.648 0 0 1 0 1.294h-7.33a.648.648 0 0 1-.458-1.104Zm-1.052 3.26c0-.713.58-1.293 1.294-1.293H42.918c.713 0 1.293.58 1.293 1.293H33.862Z" fill-rule="evenodd" data-name="Path 310"/></g></g><g data-name="Group 82"><g data-name="Group 81"><path d="M54.677 1006.117a2.715 2.715 0 0 0-.52-.597l-2.014-1.757a.434.434 0 0 0-.172-.15l-1.218-1.063-5.64-4.92c.23-.24.358-.556.358-.892a1.286 1.286 0 0 0-.737-1.167l.522-.522a1.72 1.72 0 0 0 2.17-1.665c0-.46-.179-.894-.505-1.22l-3.659-3.659a1.714 1.714 0 0 0-1.22-.505 1.725 1.725 0 0 0-1.665 2.17l-5.206 5.206a1.713 1.713 0 0 0-1.666.446 1.727 1.727 0 0 0 0 2.44l3.66 3.66a1.72 1.72 0 0 0 1.219.504 1.725 1.725 0 0 0 1.665-2.17l.521-.52a1.294 1.294 0 0 0 2.06.377l6.007 6.902a.433.433 0 0 0 .083.095l1.79 2.057a2.565 2.565 0 0 0 2.327.887 2.61 2.61 0 0 0 1.925-1.333 2.552 2.552 0 0 0-.085-2.604Zm-13.244-17.002a.857.857 0 0 1 .61-.253c.23 0 .447.09.61.253l3.658 3.659c.163.163.253.38.253.61a.863.863 0 0 1-1.472.61l-3.659-3.66a.863.863 0 0 1 0-1.219Zm-2.44 12.196a.864.864 0 0 1-1.22 0l-3.658-3.658a.863.863 0 0 1 1.22-1.22l3.659 3.659a.863.863 0 0 1 0 1.22Zm1.816-3.035-1.205 1.206-3.66-3.659 4.879-4.879 3.66 3.66-1.209 1.208-.012.011-2.438 2.438-.015.015Zm1.54.9-.003.003-.303.303a.429.429 0 0 1-.61 0 .429.429 0 0 1-.005-.604l2.449-2.45a.433.433 0 0 1 .732.31.427.427 0 0 1-.127.305l-.302.302a.409.409 0 0 0-.006.006l-1.825 1.825Zm.893.327 1.26-1.26 5.336 4.654-1.947 1.947-4.649-5.341Zm5.217 5.993 2.03-2.031.652.568-2.115 2.115-.567-.652Zm5.55 2.803a1.754 1.754 0 0 1-1.29.9 1.713 1.713 0 0 1-1.556-.596l-1.57-1.803 2.2-2.199 1.8 1.57.004.004c.135.115.254.253.356.41.326.504.349 1.193.057 1.714Z" fill-rule="evenodd" data-name="Path 311"/></g></g><g data-name="Group 84"><g data-name="Group 83"><path d="M41.128 992.469a.431.431 0 0 0-.61 0l-1.83 1.83a.431.431 0 1 0 .61.61l1.83-1.83a.431.431 0 0 0 0-.61Z" fill-rule="evenodd" data-name="Path 312"/></g></g></g></svg>