<svg xmlns="http://www.w3.org/2000/svg" width="22.308" height="22.308" viewBox="35 1031 22.308 22.308"><g data-name="icon-logout"><path d="M48.942 1043.083a.93.93 0 0 0-.929.93v3.718a.93.93 0 0 1-.93.93h-2.788v-13.943c0-.794-.506-1.503-1.266-1.767l-.275-.092h4.33a.93.93 0 0 1 .929.93v2.788a.93.93 0 1 0 1.859 0v-2.789a2.792 2.792 0 0 0-2.789-2.788h-9.992c-.035 0-.065.016-.1.02-.044-.003-.087-.02-.132-.02a1.86 1.86 0 0 0-1.859 1.859v16.73c0 .795.506 1.504 1.266 1.768l5.594 1.864c.19.059.378.087.576.087a1.86 1.86 0 0 0 1.859-1.86v-.929h2.788a2.792 2.792 0 0 0 2.789-2.788v-3.718a.93.93 0 0 0-.93-.93Zm0 0" fill-rule="evenodd" data-name="Path 313"/><path d="m57.036 1039.638-3.719-3.718a.93.93 0 0 0-1.586.657v2.788h-3.718a.93.93 0 0 0 0 1.86h3.718v2.788a.931.931 0 0 0 1.586.657l3.719-3.718a.928.928 0 0 0 0-1.314Zm0 0" fill-rule="evenodd" data-name="Path 314"/></g></svg>