<svg xmlns="http://www.w3.org/2000/svg" width="34" height="34" viewBox="200 762 34 34"><g data-name="Group 140"><path d="M208 762h18a8 8 0 0 1 8 8v18a8 8 0 0 1-8 8h-18a8 8 0 0 1-8-8v-18a8 8 0 0 1 8-8z" fill="#f2bc41" fill-rule="evenodd" data-name="Rectangle 227"/><path d="M224 771a3 3 0 0 1 3 3v10a3 3 0 0 1-3 3h-14a3 3 0 0 1-3-3v-10a3 3 0 0 1 3-3h14Zm1 3.328-7.342 6.425a1 1 0 0 1-1.219.075l-.097-.075-7.342-6.424V784a1 1 0 0 0 1 1h14a1 1 0 0 0 1-1v-9.672ZM223.48 773h-12.962l6.482 5.671 6.48-5.671Z" fill="#fff" fill-rule="evenodd" data-name="ic_mail"/></g></svg>