<svg xmlns="http://www.w3.org/2000/svg" width="28.48" height="17.455" viewBox="28 276 28.48 17.455"><g data-name="van-icon"><g data-name="Group 49"><path d="M36.9 288.45a2.502 2.502 0 1 0-.001 5.004 2.502 2.502 0 0 0 .001-5.003Zm0 3.59a1.088 1.088 0 1 1 0-2.174 1.088 1.088 0 0 1 0 2.175Z" fill-rule="evenodd" data-name="Path 115"/><path d="M50.095 288.45a2.502 2.502 0 1 0 0 5.004 2.502 2.502 0 0 0 0-5.003Zm0 3.59a1.088 1.088 0 1 1 0-2.174 1.088 1.088 0 0 1 0 2.175Z" fill-rule="evenodd" data-name="Path 116"/><path d="M39.715 280.763a.64.64 0 0 1-.637.637H30.28a.64.64 0 0 1-.637-.637v-.383a.64.64 0 0 1 .637-.637h8.797a.64.64 0 0 1 .637.637v.383Z" fill-rule="evenodd" data-name="Path 117"/><path d="M54.999 284.495c-.918-.239-1.443-.389-1.803-1.085l-1.205-2.439c-.36-.696-1.296-1.265-2.08-1.265h-1.648s-.221.005-.221-.218v-2.046c0-.793-.449-1.442-1.404-1.442H33.21c-1.366 0-2.015.649-2.015 1.442v1.282s0 .381.369.381h7.515c.703 0 1.275.572 1.275 1.275v.383c0 .703-.572 1.274-1.275 1.274h-7.515s-.37-.03-.37.368v.441c0 .35.481.35.481.35h5.059c.703 0 1.275.572 1.275 1.275v.383c0 .703-.572 1.275-1.275 1.275h-4.979s-.56-.01-.56.435v3.098c0 .793.649 1.442 1.442 1.442h.796c.18 0 .207-.1.207-.151a3.264 3.264 0 0 1 3.261-3.26 3.264 3.264 0 0 1 3.26 3.26c0 .05-.013.151.125.151h6.427c.128 0 .123-.107.123-.151a3.264 3.264 0 0 1 3.26-3.26 3.264 3.264 0 0 1 3.261 3.26c0 .05-.001.151.079.151h1.62c.784 0 1.425-.64 1.425-1.425v-2.707c0-2.28-.72-2.28-1.481-2.477Zm-2.712-.127h-4.056c-.167 0-.19-.163-.19-.163v-3.379s-.009-.13.206-.13h1.158c.697 0 1.53.507 1.85 1.126l1.072 2.17c.046.088.094.166.145.235.039.051-.025.14-.185.14Z" fill-rule="evenodd" data-name="Path 118"/><path d="M37.37 284.854a.64.64 0 0 1-.637.637h-8.096a.64.64 0 0 1-.637-.637v-.383a.64.64 0 0 1 .637-.637h8.096a.64.64 0 0 1 .637.637v.383Z" fill-rule="evenodd" data-name="Path 119"/></g></g></svg>