<svg xmlns="http://www.w3.org/2000/svg" width="18.004" height="20.485" viewBox="31 478 18.004 20.485"><g data-name="icon-notification"><path d="M46.203 488.517v-1.915a6.212 6.212 0 0 0-4.4-5.935v-.867c0-.992-.808-1.8-1.801-1.8-.993 0-1.8.808-1.8 1.8v.867a6.212 6.212 0 0 0-4.402 5.935v1.915c0 2.454-.935 4.78-2.633 6.552a.6.6 0 0 0 .433 1.015h5.462a3.006 3.006 0 0 0 2.94 2.4 3.006 3.006 0 0 0 2.94-2.4h5.462a.6.6 0 0 0 .433-1.015 9.423 9.423 0 0 1-2.634-6.552Zm-6.801-8.717a.6.6 0 0 1 1.2 0v.63a6.251 6.251 0 0 0-1.2 0v-.63Zm.6 17.484c-.783 0-1.45-.501-1.697-1.2h3.394a1.803 1.803 0 0 1-1.697 1.2Zm-7.109-2.4a10.61 10.61 0 0 0 2.108-6.367v-1.915a5.007 5.007 0 0 1 5-5.001 5.007 5.007 0 0 1 5.002 5v1.916c0 2.318.74 4.535 2.107 6.367H32.893Z" fill-rule="evenodd" data-name="Path 279"/><path d="M47.804 486.602a.6.6 0 0 0 1.2 0 8.943 8.943 0 0 0-2.637-6.366.6.6 0 0 0-.848.85 7.75 7.75 0 0 1 2.285 5.516Z" fill-rule="evenodd" data-name="Path 280"/><path d="M31.6 487.202a.6.6 0 0 0 .6-.6 7.75 7.75 0 0 1 2.285-5.517.6.6 0 1 0-.849-.848A8.943 8.943 0 0 0 31 486.602a.6.6 0 0 0 .6.6Z" fill-rule="evenodd" data-name="Path 281"/></g></svg>