<svg xmlns="http://www.w3.org/2000/svg" width="37.033" height="37.033" viewBox="-0.017 -0.017 37.033 37.033"><g data-name="CompositeLayer"><path d="M37 31.941c0-.399-.324-.722-.723-.722H31.22V3.613c0-.969-.38-1.88-1.071-2.566A3.566 3.566 0 0 0 27.622 0H3.613A3.617 3.617 0 0 0 0 3.613V5.06c0 .399.324.722.723.722H5.78v27.606A3.617 3.617 0 0 0 9.394 37h23.993A3.617 3.617 0 0 0 37 33.387V31.94ZM5.78 4.336H1.445v-.723a2.17 2.17 0 0 1 2.168-2.168 2.17 2.17 0 0 1 2.168 2.168v.723Zm27.606 31.219H12.283a3.595 3.595 0 0 0 .725-2.168v-.723h8.02a.723.723 0 0 0 0-1.445h-8.743a.723.723 0 0 0-.723.722v1.446a2.17 2.17 0 0 1-2.168 2.168 2.17 2.17 0 0 1-2.168-2.168V3.613c0-.813-.27-1.563-.724-2.168h21.1a2.126 2.126 0 0 1 1.527.627c.416.413.644.96.644 1.541V31.22h-2.24a.723.723 0 0 0 0 1.445h8.022v.723a2.17 2.17 0 0 1-2.168 2.168Z" fill="#8e8e8e" fill-rule="evenodd" data-name="Path 245"/><path d="M10.117 18.79h16.766a.723.723 0 0 0 0-1.446H10.117a.723.723 0 0 0 0 1.445Z" fill="#8e8e8e" fill-rule="evenodd" data-name="Path 246"/><path d="M10.117 22.258h16.766a.723.723 0 0 0 0-1.445H10.117a.723.723 0 1 0 0 1.445Z" fill="#8e8e8e" fill-rule="evenodd" data-name="Path 247"/><path d="M10.117 25.727h16.766a.723.723 0 0 0 0-1.446H10.117a.723.723 0 0 0 0 1.446Z" fill="#8e8e8e" fill-rule="evenodd" data-name="Path 248"/><path d="M27.605 28.473a.723.723 0 0 0-.722-.723H10.117a.723.723 0 0 0 0 1.445h16.766c.399 0 .722-.323.722-.722Z" fill="#8e8e8e" fill-rule="evenodd" data-name="Path 249"/><path d="M14.773 14.453h7.454c.356 0 .697-.15.938-.411.23-.251.343-.572.315-.904l-.533-6.39c-.056-.681-.595-1.195-1.252-1.195h-.875v-.342c0-1.28-1.04-2.32-2.32-2.32-1.28 0-2.32 1.04-2.32 2.32v.342h-.875c-.657 0-1.196.514-1.252 1.195l-.533 6.39c-.028.332.084.653.315.904.24.261.582.411.938.411Zm2.852-9.242a.876.876 0 0 1 1.75 0v.342h-1.75v-.342Zm-2.143 1.788h.724a.722.722 0 0 0 1.393 0h1.802a.722.722 0 0 0 1.393 0h.724l.5 6.009h-7.037l.501-6.01Z" fill="#8e8e8e" fill-rule="evenodd" data-name="Path 250"/><path d="M10.117 10.726h1.616a.723.723 0 0 0 0-1.445h-1.616a.723.723 0 0 0 0 1.445Z" fill="#8e8e8e" fill-rule="evenodd" data-name="Path 251"/><path d="M25.267 10.726h1.616a.723.723 0 0 0 0-1.445h-1.616a.723.723 0 1 0 0 1.445Z" fill="#8e8e8e" fill-rule="evenodd" data-name="Path 252"/><path d="M24.281 31.219a.722.722 0 1 0-.001 1.445.722.722 0 0 0 .001-1.445Z" fill="#8e8e8e" fill-rule="evenodd" data-name="Path 253"/></g></svg>