<svg xmlns="http://www.w3.org/2000/svg" width="21.145" height="21.145" viewBox="32 699 21.145 21.145"><g data-name="phone-icon"><g data-name="Group 53"><g data-name="Group 52"><path d="m52.733 715.813-2.344-1.563-2.084-1.389a.923.923 0 0 0-1.239.202l-1.29 1.657a.918.918 0 0 1-1.172.244c-.875-.487-1.91-.945-4.192-3.231-2.283-2.286-2.744-3.318-3.231-4.193a.918.918 0 0 1 .243-1.172l1.658-1.29a.923.923 0 0 0 .201-1.239l-1.346-2.02-1.606-2.408a.923.923 0 0 0-1.243-.28l-1.851 1.111c-.5.295-.868.771-1.027 1.33-.507 1.846-.609 5.918 5.918 12.445 6.526 6.527 10.598 6.424 12.445 5.918a2.262 2.262 0 0 0 1.33-1.027l1.11-1.852a.923.923 0 0 0-.28-1.243Z" fill-rule="evenodd" data-name="Path 125"/><path d="M44.03 702.28a6.204 6.204 0 0 1 6.198 6.198.365.365 0 1 0 .729 0 6.934 6.934 0 0 0-6.927-6.926.365.365 0 0 0 0 .729Z" fill-rule="evenodd" data-name="Path 126"/><path d="M44.03 704.468a4.015 4.015 0 0 1 4.01 4.01.365.365 0 1 0 .73 0 4.745 4.745 0 0 0-4.74-4.739.365.365 0 0 0 0 .73Z" fill-rule="evenodd" data-name="Path 127"/><path d="M44.03 706.656a1.825 1.825 0 0 1 1.823 1.822.365.365 0 1 0 .73 0 2.555 2.555 0 0 0-2.553-2.551.365.365 0 0 0 0 .729Z" fill-rule="evenodd" data-name="Path 128"/></g></g></g></svg>