<svg xmlns="http://www.w3.org/2000/svg" width="23.799" height="23.799" viewBox="31 618 23.799 23.799"><g data-name="privaecy-icon"><path d="M47.161 634.666v-6.541a.697.697 0 0 0-.697-.697h-.015v-1.303a3.553 3.553 0 0 0-3.55-3.548 3.553 3.553 0 0 0-3.548 3.548v1.303h-.016a.697.697 0 0 0-.697.697v6.54c0 .386.312.698.697.698h7.13a.697.697 0 0 0 .696-.697Zm-4.959-3.377a.697.697 0 1 1 1.395 0v.868a.697.697 0 0 1-1.395 0v-.868Zm-1.457-5.164c0-1.187.967-2.154 2.155-2.154 1.187 0 2.154.967 2.154 2.154v1.303h-4.309v-1.303Zm0 0" fill-rule="evenodd" data-name="Path 123"/><path d="M51.314 621.485A11.822 11.822 0 0 0 42.9 618a11.822 11.822 0 0 0-8.415 3.485A11.822 11.822 0 0 0 31 629.9c0 3.826 1.814 7.371 4.883 9.611l-.224.075a.697.697 0 1 0 .441 1.323l1.53-.51a.697.697 0 0 0 .478-.646l.034-1.614a.697.697 0 1 0-1.395-.029l-.006.3a10.473 10.473 0 0 1-4.347-8.51c0-5.793 4.713-10.506 10.506-10.506 5.792 0 10.505 4.713 10.505 10.506 0 5.792-4.713 10.505-10.505 10.505a.697.697 0 1 0 0 1.394c3.178 0 6.166-1.237 8.414-3.485a11.822 11.822 0 0 0 3.485-8.414c0-3.179-1.237-6.167-3.485-8.415Zm0 0" fill-rule="evenodd" data-name="Path 124"/></g></svg>