<svg xmlns="http://www.w3.org/2000/svg" width="64.994" height="64.994" viewBox="155 53 64.994 64.994"><g data-name="upload-image"><path d="M187.497 117.994c-17.96 0-32.497-14.555-32.497-32.497C155 67.537 169.534 53 187.497 53c17.96 0 32.497 14.534 32.497 32.497 0 17.96-14.556 32.497-32.497 32.497Zm0 0" fill="#66a9df" fill-rule="evenodd" data-name="Path 32"/><path d="M187.497 53v64.994c17.94 0 32.497-14.538 32.497-32.497 0-17.962-14.536-32.497-32.497-32.497Zm0 0" fill="#4f84cf" fill-rule="evenodd" data-name="Path 33"/><path d="M187.497 93.114c-9.456 0-18.471 4.133-25.06 13.07 13.12 15.86 37.408 15.726 50.352-.283-3.197-3.179-10.396-12.787-25.292-12.787Zm0 0" fill="#d6f3fe" fill-rule="evenodd" data-name="Path 34"/><path d="M212.789 105.901c-6.111 7.557-15.28 12.093-25.292 12.093v-24.88c14.896 0 22.095 9.609 25.292 12.787Zm0 0" fill="#bdecfc" fill-rule="evenodd" data-name="Path 35"/><path d="M187.497 87.401c-6.3 0-11.425-5.125-11.425-11.425v-3.808c0-6.3 5.125-11.425 11.425-11.425 6.3 0 11.425 5.126 11.425 11.425v3.808c0 6.3-5.125 11.425-11.425 11.425Zm0 0" fill="#d6f3fe" fill-rule="evenodd" data-name="Path 36"/><path d="M187.497 60.743v26.658c6.3 0 11.425-5.125 11.425-11.425v-3.808c0-6.3-5.125-11.425-11.425-11.425Zm0 0" fill="#bdecfc" fill-rule="evenodd" data-name="Path 37"/></g></svg>