<svg xmlns="http://www.w3.org/2000/svg" width="37.3" height="37.3"><g data-name="CompositeLayer"><path d="M37.3 18.65C37.3 8.342 28.958 0 18.65 0 8.342 0 0 8.341 0 18.65 0 28.866 8.271 37.3 18.65 37.3c10.335 0 18.65-8.387 18.65-18.65ZM18.65 2.186c9.078 0 16.464 7.385 16.464 16.464 0 3.32-.988 6.513-2.82 9.217-7.355-7.913-19.92-7.927-27.289 0a16.388 16.388 0 0 1-2.82-9.217c0-9.079 7.386-16.464 16.465-16.464ZM6.368 29.614c6.54-7.336 18.025-7.334 24.563 0-6.562 7.341-17.998 7.344-24.563 0Zm0 0" fill="#8e8e8e" fill-rule="evenodd" data-name="Path 61"/><path d="M18.65 19.743a6.564 6.564 0 0 0 6.556-6.557V11a6.564 6.564 0 0 0-6.556-6.556A6.564 6.564 0 0 0 12.093 11v2.186a6.564 6.564 0 0 0 6.557 6.557ZM14.279 11c0-2.41 1.96-4.37 4.37-4.37 2.411 0 4.372 1.96 4.372 4.37v2.186c0 2.41-1.96 4.371-4.371 4.371a4.376 4.376 0 0 1-4.371-4.371V11Zm0 0" fill="#8e8e8e" fill-rule="evenodd" data-name="Path 62"/></g></svg>