<svg xmlns="http://www.w3.org/2000/svg" width="21.145" height="22.554" viewBox="32 861 21.145 22.554"><g data-name="share-icon"><g data-name="Group 40"><path d="M49.18 875.625a3.961 3.961 0 0 0-3.188 1.611l-6.224-3.18a3.953 3.953 0 0 0-.128-2.605l6.522-3.919a3.957 3.957 0 0 0 3.018 1.397 3.97 3.97 0 0 0 3.965-3.964A3.97 3.97 0 0 0 49.18 861a3.97 3.97 0 0 0-3.696 5.398l-6.539 3.928a3.956 3.956 0 0 0-2.98-1.353A3.97 3.97 0 0 0 32 872.938a3.962 3.962 0 0 0 7.188 2.305l6.205 3.171a3.97 3.97 0 0 0 3.787 5.14 3.97 3.97 0 0 0 3.965-3.964 3.97 3.97 0 0 0-3.965-3.965Zm0-13.303a2.646 2.646 0 0 1 2.643 2.643 2.646 2.646 0 0 1-2.643 2.643 2.646 2.646 0 0 1-2.643-2.643 2.646 2.646 0 0 1 2.643-2.643ZM35.965 875.58a2.646 2.646 0 0 1-2.643-2.643 2.646 2.646 0 0 1 2.643-2.643 2.646 2.646 0 0 1 2.643 2.643 2.646 2.646 0 0 1-2.643 2.643Zm13.215 6.652a2.646 2.646 0 0 1-2.643-2.643 2.646 2.646 0 0 1 2.643-2.644 2.646 2.646 0 0 1 2.643 2.644 2.646 2.646 0 0 1-2.643 2.643Z" fill="#54bad5" fill-rule="evenodd" data-name="Path 79"/></g></g></svg>