<svg xmlns="http://www.w3.org/2000/svg" width="66.947" height="66.948" viewBox="154 313.308 66.947 66.948"><g data-name="smily-face-icon"><path d="M211.155 323.104c-13.059-13.06-34.305-13.06-47.361-.003-13.06 13.057-13.058 34.304 0 47.364 13.056 13.056 34.302 13.056 47.36-.003 13.058-13.057 13.057-34.303.001-47.358Zm-3.654 43.706c-11.043 11.043-29.011 11.044-40.055.002-11.045-11.045-11.044-29.016 0-40.058 11.043-11.042 29.011-11.044 40.056.001 11.043 11.043 11.042 29.013 0 40.055Zm-32.519-29.091a3.915 3.915 0 1 1 7.83.001 3.915 3.915 0 0 1-7.83-.001Zm17.748 0a3.914 3.914 0 1 1 7.83 0 3.914 3.914 0 0 1-7.83 0Zm9.254 16.031c-2.426 5.61-8.107 9.234-14.472 9.234-6.502 0-12.217-3.642-14.559-9.28a1.893 1.893 0 1 1 3.498-1.452c1.753 4.22 6.094 6.946 11.061 6.946 4.854 0 9.17-2.728 10.996-6.95a1.893 1.893 0 1 1 3.476 1.502Z" fill="#54bad5" fill-rule="evenodd" data-name="Path 275"/></g></svg>