<svg xmlns="http://www.w3.org/2000/svg" width="18.022" height="18.385" viewBox="268 321 18.022 18.385"><g data-name="sorting icon"><g data-name="advirtising-arrow"><g data-name="Group 37"><path d="M273.17 338.666v-15.209l2.508 2.52a.718.718 0 0 0 1.018-1.013l-3.734-3.753a.719.719 0 0 0-1.018 0l-3.735 3.752a.718.718 0 0 0 1.018 1.014l2.508-2.52v15.21a.718.718 0 1 0 1.436 0Z" fill="#646464" fill-rule="evenodd" data-name="Path 66"/></g></g><g data-name="advirtising-arrow"><g data-name="Group 37"><path d="M280.852 321.718v15.209l-2.507-2.52a.718.718 0 0 0-1.018 1.014l3.734 3.752c.28.281.737.282 1.018 0l3.735-3.752a.718.718 0 0 0-1.018-1.014l-2.508 2.52v-15.21a.718.718 0 1 0-1.436 0Z" fill="#646464" fill-rule="evenodd" data-name="Path 66"/></g></g></g></svg>