<svg xmlns="http://www.w3.org/2000/svg" width="24.153" height="23.068" viewBox="31 902 24.153 23.068"><g data-name="star"><path d="m12.965 12.053 3.195 6.473 7.143 1.038a.991.991 0 0 1 .55 1.69l-5.17 5.04 1.22 7.114a.991.991 0 0 1-1.437 1.045l-6.39-3.36-6.389 3.36a.991.991 0 0 1-1.438-1.045l1.22-7.115L.3 21.255a.991.991 0 0 1 .55-1.69l7.143-1.039 3.195-6.473a.991.991 0 0 1 1.777 0Z" fill-rule="evenodd" fill="url(&quot;#a&quot;)" transform="translate(31 890.5)" data-name="Path 10"/><path d="m260.084 18.527-3.194-6.474a.98.98 0 0 0-.889-.552v12.255l4.083-5.23Z" fill-rule="evenodd" fill="url(&quot;#b&quot;)" transform="translate(-212.925 890.499)" data-name="Path 11"/><path d="m262.607 203.06 5.17-5.038a.979.979 0 0 0 .254-1.002L256 200.524l6.607 2.537Z" fill-rule="evenodd" fill="url(&quot;#c&quot;)" transform="translate(-212.924 713.732)" data-name="Path 12"/><path d="M263.436 281.908 256 271.289v7.338l6.39 3.359a.98.98 0 0 0 1.046-.078Z" fill-rule="evenodd" fill="url(&quot;#d&quot;)" transform="translate(-212.924 642.966)" data-name="Path 13"/><path d="m97.6 271.289-6.608 2.537-1.22 7.115a.98.98 0 0 0 .391.967l7.436-10.619Z" fill-rule="evenodd" fill="url(&quot;#e&quot;)" transform="translate(-54.523 642.966)" data-name="Path 14"/><path d="m.968 162.155 12.03 3.504-4.083-5.23-7.143 1.038a.98.98 0 0 0-.804.688Z" fill-rule="evenodd" fill="url(&quot;#f&quot;)" transform="translate(30.077 748.597)" data-name="Path 15"/><path d="m5.475 203.062-5.17-5.039a.979.979 0 0 1-.254-1.002l12.031 3.504-6.607 2.537Z" fill-rule="evenodd" fill="url(&quot;#g&quot;)" transform="translate(30.994 713.73)" data-name="Path 16"/></g><defs><linearGradient x1=".463" y1=".914" x2=".463" y2="-.169" id="a"><stop stop-color="#ffcf95" offset="0"/><stop stop-color="#ffc954" offset=".427"/><stop stop-color="#ffc200" offset="1"/></linearGradient><linearGradient x1="1.217" y1="1.457" x2="-.633" y2="1.457" id="b"><stop stop-color="rgba(255,194,0,0 )" offset="0"/><stop stop-color="rgba(255,187,0,0.2 )" offset=".203"/><stop stop-color="rgba(255,167,0,0.5 )" offset=".499"/><stop stop-color="rgba(255,136,0,0.85 )" offset=".852"/><stop stop-color="#ff7800" offset="1"/></linearGradient><linearGradient x1=".518" y1="-.407" x2=".353" y2="1.223" id="c"><stop stop-color="rgba(255,194,0,0 )" offset="0"/><stop stop-color="rgba(255,187,0,0.2 )" offset=".203"/><stop stop-color="rgba(255,167,0,0.5 )" offset=".499"/><stop stop-color="rgba(255,136,0,0.85 )" offset=".852"/><stop stop-color="#ff7800" offset="1"/></linearGradient><linearGradient x1="-.462" y1="-1.03" x2=".591" y2="-.306" id="d"><stop stop-color="rgba(255,194,0,0 )" offset="0"/><stop stop-color="rgba(255,187,0,0.2 )" offset=".203"/><stop stop-color="rgba(255,167,0,0.5 )" offset=".499"/><stop stop-color="rgba(255,136,0,0.85 )" offset=".852"/><stop stop-color="#ff7800" offset="1"/></linearGradient><linearGradient x1="-.151" y1="-.116" x2=".585" y2="-.571" id="e"><stop stop-color="rgba(255,194,0,0 )" offset="0"/><stop stop-color="rgba(255,187,0,0.2 )" offset=".203"/><stop stop-color="rgba(255,167,0,0.5 )" offset=".499"/><stop stop-color="rgba(255,136,0,0.85 )" offset=".852"/><stop stop-color="#ff7800" offset="1"/></linearGradient><linearGradient x1=".61" y1="2.287" x2=".415" y2="1.017" id="f"><stop stop-color="rgba(255,194,0,0 )" offset="0"/><stop stop-color="rgba(255,187,0,0.2 )" offset=".203"/><stop stop-color="rgba(255,167,0,0.5 )" offset=".499"/><stop stop-color="rgba(255,136,0,0.85 )" offset=".852"/><stop stop-color="#ff7800" offset="1"/></linearGradient><linearGradient x1="1.34" y1="1.58" x2="-.083" y2=".368" id="g"><stop stop-color="rgba(255,194,0,0 )" offset="0"/><stop stop-color="rgba(255,187,0,0.2 )" offset=".203"/><stop stop-color="rgba(255,167,0,0.5 )" offset=".499"/><stop stop-color="rgba(255,136,0,0.85 )" offset=".852"/><stop stop-color="#ff7800" offset="1"/></linearGradient></defs></svg>