<svg xmlns="http://www.w3.org/2000/svg" width="29.345" height="29.345" viewBox="183 246 29.345 29.345"><g data-name="sweets-icon"><path d="M191.59 274.886c-.932.702-2.3.595-3.194-.3a2.599 2.599 0 0 1-.583-.886c-.841.268-1.825.048-2.52-.648-.696-.696-.916-1.679-.648-2.52a2.598 2.598 0 0 1-.886-.583c-.895-.894-1.003-2.263-.3-3.195-.036-.031 10.722-2.59 10.722-2.59s-2.559 10.758-2.59 10.722Z" fill="#8e8e8e" fill-rule="evenodd" data-name="Path 202"/><path d="M201.164 257.181s2.559-10.758 2.59-10.723c.932-.702 2.3-.594 3.195.3a2.6 2.6 0 0 1 .583.887c.841-.268 1.824-.048 2.52.648.696.695.916 1.679.648 2.52.321.126.624.32.886.583.895.894 1.002 2.262.3 3.194.036.032-10.722 2.591-10.722 2.591Z" fill="#8e8e8e" fill-rule="evenodd" data-name="Path 203"/><path d="m201.164 257.181 8.888-8.888c.696.695.916 1.679.648 2.52.321.126.624.32.886.583.895.894 1.002 2.262.3 3.194.036.032-10.722 2.591-10.722 2.591Z" fill="#8e8e8e" fill-rule="evenodd" data-name="Path 204"/><path d="M194.181 264.164s-2.559 10.758-2.59 10.722c-.933.702-2.3.595-3.195-.3a2.599 2.599 0 0 1-.583-.886c-.841.268-1.825.048-2.52-.648l8.888-8.888Z" fill="#8e8e8e" fill-rule="evenodd" data-name="Path 205"/><path d="M197.673 260.673Z" fill="#8e8e8e" fill-rule="evenodd" data-name="Path 206"/><path d="M203.91 269.022a10.374 10.374 0 0 1-6.237 2.072c-1.473 0-2.875-.305-4.145-.857-1.262-.547-2.052-1.684-2.572-2.847-.376-.839-.61-1.69-.78-2.344 0 0-2.704-1.851-2.856-3.168a10.405 10.405 0 0 1 4.088-9.534c1.744-1.315 6.545-.153 6.545-.153s2.553-1.643 3.808-1.107a10.42 10.42 0 0 1 3.28 2.22 10.388 10.388 0 0 1 2.98 6.137c.027.224-.368 3.7-2.07 4.855 0 0-.913 3.882-2.04 4.726Z" fill="#8e8e8e" fill-rule="evenodd" data-name="Path 207"/><path d="M203.91 269.022a10.374 10.374 0 0 1-6.237 2.072c-1.473 0-2.875-.305-4.145-.857-1.262-.547-2.052-1.684-2.572-2.847l14.086-14.086a10.388 10.388 0 0 1 2.98 6.137c.026.224-.369 3.7-2.072 4.855 0 0-.912 3.882-2.04 4.726Z" fill="#8e8e8e" fill-rule="evenodd" data-name="Path 208"/><g data-name="Group 63"><path d="M197.673 260.673c1.56-2.718.613-6.178-2.105-7.737a5.652 5.652 0 0 0-4.16-.593 10.372 10.372 0 0 1 6.264-2.092c1.452 0 2.834.297 4.089.833a5.646 5.646 0 0 1 1.578 3.923 5.66 5.66 0 0 1-5.666 5.666Z" fill="#8e8e8e" fill-rule="evenodd" data-name="Path 209"/><path d="M193.528 270.237a10.445 10.445 0 0 1-6.208-8.36 5.645 5.645 0 0 1 2.594-3.273 5.642 5.642 0 0 1 2.831-.761 5.676 5.676 0 0 1 4.928 2.83 5.689 5.689 0 0 0-5.683 5.681v.001a5.65 5.65 0 0 0 1.538 3.882Z" fill="#8e8e8e" fill-rule="evenodd" data-name="Path 210"/><path d="M203.91 269.022a5.637 5.637 0 0 1-4.15-.595c-2.716-1.56-3.647-5.037-2.087-7.754a5.665 5.665 0 0 0 4.91 2.846c.963 0 1.939-.245 2.832-.76a5.648 5.648 0 0 0 2.607-3.318 10.407 10.407 0 0 1-4.11 9.581Z" fill="#8e8e8e" fill-rule="evenodd" data-name="Path 211"/></g><g data-name="Group 64"><path d="m197.673 260.673 5.666-5.667v.001a5.66 5.66 0 0 1-5.666 5.666Z" fill="#8e8e8e" fill-rule="evenodd" data-name="Path 212"/><path d="M191.99 266.355a5.65 5.65 0 0 0 1.538 3.882 10.444 10.444 0 0 1-3.224-2.195l1.686-1.687Z" fill="#8e8e8e" fill-rule="evenodd" data-name="Path 213"/><path d="M203.91 269.022a5.637 5.637 0 0 1-4.15-.595c-2.716-1.56-3.647-5.037-2.087-7.754a5.665 5.665 0 0 0 4.91 2.846c.963 0 1.939-.245 2.832-.76a5.648 5.648 0 0 0 2.607-3.318 10.407 10.407 0 0 1-4.11 9.581Z" fill="#8e8e8e" fill-rule="evenodd" data-name="Path 214"/></g></g></svg>