<svg xmlns="http://www.w3.org/2000/svg" width="25.278" height="25.278" viewBox="31 659 25.278 25.278"><g data-name="Filled outline"><path d="M51.644 659.421c-.931 0-1.686.755-1.686 1.685v21.065c0 .931-.754 1.686-1.685 1.686H34.792v-22.75c0-.931.754-1.686 1.685-1.686h15.167Z" fill="#60d1e0" fill-rule="evenodd" data-name="Path 282"/><path d="M51.644 659.421c-.931 0-1.686.755-1.686 1.685v21.065c0 .931-.754 1.686-1.685 1.686H34.792v-5.514c5.576-3.355 10.585-9.276 13.908-18.922h2.944Z" fill="#5ac6d4" fill-rule="evenodd" data-name="Path 283"/><path d="M48.273 683.857H33.106c-.93 0-1.685-.755-1.685-1.686v-.842h15.167v.842c0 .931.754 1.686 1.685 1.686Z" fill="#b7e7eb" fill-rule="evenodd" data-name="Path 284"/><path d="M53.329 661.95h-3.37v-.844a1.685 1.685 0 0 1 3.37 0v.843Z" fill="#57bfcc" fill-rule="evenodd" data-name="Path 285"/><path d="M43.958 662.979c.382-.606-.322-1.31-.927-.927-.158-.699-1.154-.699-1.311 0-.606-.382-1.31.321-.927.927-.699.158-.699 1.153 0 1.31-.382.606.321 1.31.927.928.158.698 1.153.698 1.31 0 .606.382 1.31-.322.928-.927.698-.158.698-1.153 0-1.311Z" fill="#ffb531" fill-rule="evenodd" data-name="Path 286"/><path d="M52.907 664.477c-.698 0-1.263.566-1.263 1.264v13.481h2.527v-13.481c0-.698-.566-1.264-1.264-1.264Z" fill="#92563a" fill-rule="evenodd" data-name="Path 287"/><path d="m51.644 679.222 1.263 2.528 1.264-2.528h-2.527Z" fill="#ffb531" fill-rule="evenodd" data-name="Path 288"/><path d="M53.329 662.37a.421.421 0 0 0 .421-.42v-.844A2.109 2.109 0 0 0 51.644 659H36.477a2.109 2.109 0 0 0-2.107 2.106v18.959h.843v-18.959c0-.697.566-1.263 1.264-1.263h13.482a2.096 2.096 0 0 0-.422 1.263v21.065a1.264 1.264 0 1 1-2.528 0v-.842a.421.421 0 0 0-.421-.422H31.421a.421.421 0 0 0-.421.422v.842a2.109 2.109 0 0 0 2.106 2.107h15.167a2.109 2.109 0 0 0 2.107-2.107v-19.8h2.949Zm-20.223 21.065a1.265 1.265 0 0 1-1.263-1.264v-.421h14.324v.421c0 .456.147.9.422 1.264H33.106Zm18.538-23.592c.697 0 1.263.566 1.263 1.263v.422H50.38v-.422c0-.697.566-1.263 1.264-1.263Z" fill-rule="evenodd" data-name="Path 289"/><path d="M39.847 663.634c-.004.342.154.665.426.871a1.104 1.104 0 0 0 1.231 1.232 1.104 1.104 0 0 0 1.742 0 1.104 1.104 0 0 0 1.231-1.232 1.104 1.104 0 0 0 0-1.742 1.104 1.104 0 0 0-1.231-1.231 1.104 1.104 0 0 0-1.742 0 1.104 1.104 0 0 0-1.231 1.231c-.272.207-.43.53-.426.871Zm1.038-.244a.421.421 0 0 0 .264-.636.25.25 0 0 1 .345-.346.421.421 0 0 0 .636-.263.25.25 0 0 1 .49 0 .421.421 0 0 0 .635.263.25.25 0 0 1 .346.346.421.421 0 0 0 .264.636.25.25 0 0 1 0 .489.421.421 0 0 0-.264.636.25.25 0 0 1-.346.346.421.421 0 0 0-.636.263.25.25 0 0 1-.489 0 .421.421 0 0 0-.635-.263.25.25 0 0 1-.346-.346.421.421 0 0 0-.264-.636.25.25 0 0 1 0-.49Z" fill-rule="evenodd" data-name="Path 290"/><path d="M40.269 668.69h4.213v.842h-4.213v-.842Z" fill-rule="evenodd" data-name="Path 291"/><path d="M41.532 667.005h4.213v.842h-4.213v-.842Z" fill-rule="evenodd" data-name="Path 292"/><path d="M39.005 667.005h1.685v.842h-1.685v-.842Z" fill-rule="evenodd" data-name="Path 293"/><path d="M38.162 670.796h10.111v.843H38.162v-.843Z" fill-rule="evenodd" data-name="Path 294"/><path d="M36.477 670.796h.842v.843h-.842v-.843Z" fill-rule="evenodd" data-name="Path 295"/><path d="M38.162 672.482h6.74v.842h-6.74v-.842Z" fill-rule="evenodd" data-name="Path 296"/><path d="M45.745 672.482h2.528v.842h-2.528v-.842Z" fill-rule="evenodd" data-name="Path 297"/><path d="M38.162 674.167h10.111v.842H38.162v-.842Z" fill-rule="evenodd" data-name="Path 298"/><path d="M36.477 674.167h.842v.842h-.842v-.842Z" fill-rule="evenodd" data-name="Path 299"/><path d="M38.162 675.852h2.528v.842h-2.528v-.842Z" fill-rule="evenodd" data-name="Path 300"/><path d="M41.532 675.852h6.741v.842h-6.74v-.842Z" fill-rule="evenodd" data-name="Path 301"/><path d="M38.162 677.537h6.74v.843h-6.74v-.843Z" fill-rule="evenodd" data-name="Path 302"/><path d="M36.477 677.537h.842v.843h-.842v-.843Z" fill-rule="evenodd" data-name="Path 303"/><path d="M38.162 679.222h10.111v.843H38.162v-.843Z" fill-rule="evenodd" data-name="Path 304"/><path d="M45.745 677.537h2.528v.843h-2.528v-.843Z" fill-rule="evenodd" data-name="Path 305"/><path d="M55.014 665.74h-.421a1.685 1.685 0 0 0-3.37 0v13.482c0 .066.015.13.044.189l1.264 2.527a.421.421 0 0 0 .753 0l1.264-2.527a.418.418 0 0 0 .045-.189v-12.639h.42c.234 0 .422.19.422.422v4.634h.843v-4.634c-.001-.698-.566-1.263-1.264-1.264Zm-2.107-.842c.466 0 .842.378.843.843h-1.685c0-.465.377-.842.842-.843Zm.843 13.903h-1.685v-6.32h1.685v6.32Zm0-7.162h-1.685v-.843h1.685v.843Zm-.843 9.169-.582-1.164h1.165l-.583 1.164Zm.843-10.854h-1.685v-3.37h1.685v3.37Z" fill-rule="evenodd" data-name="Path 306"/></g></svg>