<svg xmlns="http://www.w3.org/2000/svg" width="25" height="25" viewBox="30 776.95 25 25"><g data-name="twitter-icon"><path d="M30 789.4a12.5 12.5 0 1 1 0 .1z" fill="#55acee" fill-rule="evenodd" data-name="Ellipse 25"/><g data-name="Group 54"><path d="M50.426 786.103a6.04 6.04 0 0 1-1.74.477 3.036 3.036 0 0 0 1.332-1.675 6.061 6.061 0 0 1-1.922.734 3.028 3.028 0 0 0-5.16 2.762 8.595 8.595 0 0 1-6.24-3.164 3.028 3.028 0 0 0 .937 4.042 3.006 3.006 0 0 1-1.372-.378v.038a3.03 3.03 0 0 0 2.428 2.969 3.017 3.017 0 0 1-1.367.052 3.031 3.031 0 0 0 2.829 2.103 6.075 6.075 0 0 1-4.483 1.253 8.564 8.564 0 0 0 4.64 1.36c5.57 0 8.616-4.613 8.616-8.614 0-.131-.003-.262-.01-.392a6.14 6.14 0 0 0 1.512-1.567Z" fill="#f1f2f2" fill-rule="evenodd" data-name="Path 130"/></g></g></svg>