<svg xmlns="http://www.w3.org/2000/svg" width="22" height="23" viewBox="31 590.95 22 23"><g data-name="visa-icon"><path d="M31 602.4a11 11.5 0 1 1 0 .1z" fill="#f3f2f2" fill-rule="evenodd" data-name="Ellipse 21"/><g data-name="Group 42"><path d="m39.417 604.548.87-5.136h1.408l-.87 5.136h-1.408Z" fill="#293688" fill-rule="evenodd" data-name="Path 91"/><path d="M45.838 599.545a3.657 3.657 0 0 0-1.262-.216c-1.392 0-2.372.697-2.38 1.695-.009.738.699 1.15 1.233 1.395.549.251.733.413.73.637-.003.344-.438.502-.843.502-.563 0-.863-.078-1.325-.27l-.182-.082-.197 1.15c.329.143.937.268 1.568.274 1.48 0 2.442-.688 2.453-1.755.005-.584-.37-1.028-1.183-1.395-.492-.237-.794-.396-.79-.637 0-.213.255-.441.806-.441.46-.007.794.092 1.054.196l.126.06.192-1.113Z" fill="#293688" fill-rule="evenodd" data-name="Path 92"/><path d="M48.239 599.412c-.338 0-.581.103-.73.437l-2.087 4.699h1.491l.29-.787h1.781l.166.787h1.325l-1.16-5.136H48.24Zm-.64 3.321.56-1.435c-.008.013.116-.298.187-.49l.096.442.325 1.483H47.6Z" fill="#293688" fill-rule="evenodd" data-name="Path 93"/><path d="m36.849 602.932-.124-.704c-.257-.82-1.055-1.709-1.949-2.153l1.245 4.473h1.49l2.237-5.136h-1.49l-1.41 3.52Z" fill="#293688" fill-rule="evenodd" data-name="Path 94"/></g><g data-name="Group 43"><path d="M33.246 599.412v.083c1.767.425 2.993 1.499 3.479 2.733l-.51-2.378c-.086-.325-.344-.427-.65-.438h-2.32Z" fill="#f7981d" fill-rule="evenodd" data-name="Path 95"/><path d="M42.366 613.733c4.387 0 8.19-2.486 10.085-6.126h-20.17a11.362 11.362 0 0 0 10.085 6.126Z" fill="#f7981d" fill-rule="evenodd" data-name="Path 96"/></g><path d="M42.366 591a11.364 11.364 0 0 0-9.997 5.953h19.994A11.365 11.365 0 0 0 42.366 591Z" fill="#293688" fill-rule="evenodd" data-name="Path 97"/></g></svg>